<svg xmlns="http://www.w3.org/2000/svg" width="18.135" height="18.135" viewBox="0 0 18.135 18.135"><defs><style>.a{fill:#32455c;}.b{fill:#e8fffb;}</style></defs><g transform="translate(0 -0.003)"><path class="a" d="M18.135,9.07a9.067,9.067,0,1,0-9.067,9.067A9.067,9.067,0,0,0,18.135,9.07Z" transform="translate(0 0)"/><path class="b" d="M146.233,132.018l2.651-3.077a.8.8,0,0,0-1.216-1.047l-2.494,2.9-2.494-2.9a.8.8,0,1,0-1.216,1.047l2.651,3.077-2.651,3.077a.8.8,0,0,0,1.216,1.047l2.494-2.9,2.494,2.9a.8.8,0,0,0,1.216-1.047Z" transform="translate(-136.107 -122.948)"/></g></svg>