<svg xmlns="http://www.w3.org/2000/svg" width="194.654" height="518.941" viewBox="0 0 194.654 518.941"><defs><style>.a{fill:#ffe1d5;stroke:#f7c8b8;}.b{fill:#e36f6f;}.c{fill:#c33a1a;}.d{fill:#53518c;}</style></defs><g transform="translate(19.623 -78.599)"><path class="a" d="M174.4,357.626a25.2,25.2,0,0,0-1.939-2.261c-1.573-3.676-2.463-7.28-5.681-10.278-4.048-3.76-8.706-8.633-11.182-14.062-1.292-12.975-1.085-25.9-2.182-38.875a140.234,140.234,0,0,0-2.9-18.512,139.15,139.15,0,0,0-4.828-14.425c-.11-.858-.231-1.7-.329-2.575-.537-5.284-.122-10.326-.146-15.61-.012-5.066.219-10.3-.512-15.332a40.278,40.278,0,0,0-2.231-8.066c-.316-.87-.658-1.741-.987-2.611,3.573-11.922,1.756-24.183-4.256-35.38-2.427-4.534-5.718-8.537-10.413-10.822-3.451-1.669-7.084-2.189-10.73-3.156-2.158-.568-4.072-1.753-6.133-2.539-6.133-3.277-12.412-6.264-18.509-9.589a29.8,29.8,0,0,1,2.267-13.01,18.908,18.908,0,0,0,1.622-7.158,21.017,21.017,0,0,0-.122-2.89,8.517,8.517,0,0,1,2.427-1.608,4.141,4.141,0,0,0,1.488-1.221c1.329-1.741,1.915-4.667,2.415-6.711.426-1.777,1.524-4.8.939-6.674-.39-1.27-1.305-1.572-2.231-1.983,1.135-5.383,1.572-12.048-.5-17.406-1.942-5.022-4.685-8.978-9.369-11.829-6.114-3.722-12.7-5.1-19.566-2.832a26.236,26.236,0,0,0-8.539,4.631c-2.668,2.218-3.648,4.69-5.362,7.518-3.428,5.655-3.05,13.655-1.729,19.919-.926.411-1.841.713-2.231,1.983-.585,1.875.512,4.9.939,6.674.5,2.044,1.085,4.97,2.415,6.711a4.141,4.141,0,0,0,1.488,1.221,8.5,8.5,0,0,1,2.427,1.608,21.015,21.015,0,0,0-.122,2.89,18.908,18.908,0,0,0,1.622,7.158,29.8,29.8,0,0,1,2.267,13.01c-6.1,3.325-12.375,6.312-18.509,9.589-2.061.786-3.975,1.971-6.133,2.539-3.646.967-7.279,1.487-10.73,3.156-4.694,2.285-7.987,6.287-10.413,10.822-6.011,11.2-7.828,23.458-4.256,35.38-.329.87-.671,1.741-.987,2.611a40.277,40.277,0,0,0-2.231,8.066c-.732,5.029-.5,10.265-.512,15.332-.024,5.284.39,10.326-.146,15.61-.1.871-.219,1.717-.329,2.575A139.148,139.148,0,0,0,4.9,273.637,140.231,140.231,0,0,0,2,292.15c-1.1,12.975-.89,25.9-2.182,38.875-2.476,5.429-7.134,10.3-11.181,14.062-3.219,3-4.109,6.6-5.682,10.278a25.2,25.2,0,0,0-1.939,2.261.8.8,0,0,0,.488,1.185c2.329.568,4.524-1.826,6.1-3.276,1.037-.955,1.939-1.96,2.853-2.927.39-.012.512.242.354.774.255.193.353.738.353,1.488,0,3.156-1.829,10.109-2.134,11.838-.622,3.615-1.89,7.339-2.109,10.967a1.537,1.537,0,0,0,2.6,1.065c2.049-2.395,2.512-5.357,3.634-8.235.085-.218.171-.423.256-.641-.073.943-.11,1.656-.146,1.838-.683,3.628-1.8,7.183-2.134,10.871a1.734,1.734,0,0,0,1.72,1.705c2.243.121,3.353-2.322,4.329-4.293,2.841.181,5.3-4.015,7.084-6.808,4.561-2.08,6.828-9.311,8.06-13.6a70.018,70.018,0,0,0,1.914-25.961,1.5,1.5,0,0,0-.133-.447c.61-1.911,1.451-3.8,2.048-5.551,1.292-3.808,3-7.363,4.645-11.015A95.5,95.5,0,0,0,28.2,291.255c1.243-8.259,1.865-16.541,2.28-24.873A83.5,83.5,0,0,1,35.261,242.2c3.073,8.924,5.646,17.158,5.365,26.952-.353,12.709-4.145,24.353-7.279,36.529A158.746,158.746,0,0,0,29.872,370.3a1.236,1.236,0,0,0,.414.762c.292,20.459,10.047,40.072,11.681,60.482,2,25.126-7.547,49.286-2.743,74.424a1.071,1.071,0,0,0,.451.7c.049,1.342.1,2.285.134,2.478,1.256,6.433,3.317,12.829,4.743,19.25a151.251,151.251,0,0,1,3.464,20.193c.463,5.417.06,10.773.39,16.215-.353.641-.732,1.294-1.121,1.947A90.2,90.2,0,0,1,37.736,579.6c-1.317,1.487-3.451,3.083-3.463,5.272,0,2.092,1.841,2.382,2.048,4.159a1.55,1.55,0,0,0,1.524,1.512,6.115,6.115,0,0,0,1.244-.072,8.366,8.366,0,0,0,.6,1.765,1.483,1.483,0,0,0,1.658.677c.11-.048.963-.4,1.6-.7.024.036.06.072.1.12.793.738.219,1.354,1.622,2.213a1.443,1.443,0,0,0,1.464,0c1.8-1.342,2.926-3.169,4.377-4.777-.671,2.3-1.743,5.078-.28,6.53,1.378,1.353,5.182.617,6.463-.52,1.048-.931,1.427-2.878,1.816-4.123.891-2.842,2.488-4.728,3.792-7.292,1.329-2.6,1.427-5.151,2.829-7.907a19.84,19.84,0,0,0,2.158-6.445,1.217,1.217,0,0,0-.683-1.33,26.028,26.028,0,0,0-.695-4.691,34.057,34.057,0,0,1-.366-6.191,14.957,14.957,0,0,0,.671-3.3,13.764,13.764,0,0,0-1.378-6.323c.488-5.816.537-11.742,1.146-17.437.878-8.162,1.329-16.408,2.366-24.546,1-7.8,2.353-15.694,1.877-23.567-.292-4.873-1.829-9.359-3.243-13.881.817-7.327,3.121-14.268,3.511-21.7.488-9.287,2.634-18.137,3.634-27.339.963-8.864-.61-17.75.158-26.65A275.352,275.352,0,0,1,77.7,365.576a275.352,275.352,0,0,1,3.427,27.478c.768,8.9-.8,17.787.158,26.65,1,9.2,3.145,18.052,3.634,27.339.39,7.436,2.694,14.377,3.511,21.7-1.414,4.522-2.95,9.008-3.243,13.881-.476,7.872.878,15.768,1.877,23.567,1.037,8.138,1.488,16.384,2.366,24.546.61,5.695.659,11.62,1.146,17.437A13.764,13.764,0,0,0,89.2,554.5a14.956,14.956,0,0,0,.671,3.3,34.056,34.056,0,0,1-.366,6.191,26.027,26.027,0,0,0-.695,4.691,1.218,1.218,0,0,0-.683,1.33,19.84,19.84,0,0,0,2.158,6.445c1.4,2.757,1.5,5.308,2.829,7.907,1.3,2.563,2.9,4.45,3.792,7.292.39,1.245.768,3.192,1.816,4.123,1.28,1.137,5.085,1.874,6.463.52,1.464-1.451.39-4.232-.28-6.53,1.451,1.608,2.573,3.434,4.377,4.777a1.443,1.443,0,0,0,1.464,0c1.4-.859.829-1.476,1.622-2.213.037-.048.073-.084.1-.12.634.3,1.487.653,1.6.7a1.484,1.484,0,0,0,1.659-.677,8.429,8.429,0,0,0,.6-1.765,6.115,6.115,0,0,0,1.244.072,1.55,1.55,0,0,0,1.524-1.512c.207-1.777,2.049-2.067,2.049-4.159-.013-2.188-2.146-3.785-3.464-5.272a90.2,90.2,0,0,1-9.547-12.853c-.39-.653-.768-1.306-1.121-1.947.329-5.441-.073-10.8.39-16.215a151.391,151.391,0,0,1,3.464-20.193c1.427-6.421,3.487-12.817,4.743-19.25.036-.193.085-1.136.134-2.478a1.071,1.071,0,0,0,.451-.7c4.8-25.138-4.743-49.3-2.743-74.424,1.634-20.41,11.388-40.023,11.681-60.482a1.236,1.236,0,0,0,.414-.762,158.746,158.746,0,0,0-3.475-64.617c-3.133-12.177-6.925-23.82-7.279-36.529-.28-9.794,2.292-18.028,5.365-26.952a83.5,83.5,0,0,1,4.779,24.183c.415,8.331,1.037,16.614,2.28,24.873a95.5,95.5,0,0,0,7.414,25.344c1.646,3.652,3.353,7.207,4.645,11.015.6,1.753,1.439,3.64,2.049,5.551a1.472,1.472,0,0,0-.134.447,70.018,70.018,0,0,0,1.914,25.961c1.231,4.293,3.5,11.523,8.06,13.6,1.78,2.793,4.243,6.989,7.085,6.808.975,1.971,2.084,4.414,4.328,4.293a1.734,1.734,0,0,0,1.72-1.705c-.329-3.688-1.451-7.243-2.134-10.871-.036-.181-.073-.894-.146-1.838.085.218.171.423.256.641,1.122,2.878,1.585,5.84,3.634,8.235a1.537,1.537,0,0,0,2.6-1.065c-.219-3.628-1.488-7.352-2.109-10.967-.305-1.729-2.134-8.682-2.134-11.838,0-.75.1-1.294.354-1.488-.159-.531-.037-.786.353-.774.914.967,1.817,1.972,2.853,2.927,1.573,1.451,3.767,3.845,6.1,3.276A.8.8,0,0,0,174.4,357.626Z" transform="translate(0)"/><g transform="translate(-15.078 87.587)"><path class="b" d="M114.815,244.52c-1.969-5.1-5.446-10.792-10.969-13a8.273,8.273,0,0,0-10.728,4.747,7.587,7.587,0,0,0-2.3,3.761c-1.251,5.095,1.738,9.544,6.307,11.882a58.619,58.619,0,0,0,8.382,3.209c2.328.764,4.543,1.941,6.988,1.052C117.849,254.226,116.34,248.471,114.815,244.52Z" transform="translate(-0.285 -108.863)"/><g transform="translate(0 1.368)"><path class="c" d="M74.852,183.88a21.687,21.687,0,0,0-1.654-2.1,12.4,12.4,0,0,0,.472-1.864,35.525,35.525,0,0,0,.071-4.149c.007-3.688.145-7.376.035-11.065a95.035,95.035,0,0,0-1.824-14.688c.05-.3.1-.6.133-.883.234-1.838.44-3.679.634-5.523.042-.408-.617-.4-.66,0-.159,1.517-.315,3.034-.457,4.551-.353-1.823-.717-3.647-1.07-5.477C69.88,139.3,69,135.96,68.146,132.617c.543-4.292,2.924-8.434,5.156-12.028.251-.4-.4-.765-.653-.368-2.081,3.22-4.14,6.977-4.893,10.861a84.353,84.353,0,0,1-2.2-11.194,44.739,44.739,0,0,1-.073-9.294c1.891-4.387,5.119-8.59,7.8-12.087.239-.312-.31-.726-.561-.418a51.446,51.446,0,0,0-7.032,10.748,50.743,50.743,0,0,1,1.138-5.772,41.9,41.9,0,0,1,4.9-5.94c.277-.265-.15-.678-.427-.413a30.913,30.913,0,0,0-4.154,5.182c.279-1,.592-2.009.925-3.016.46-.758,1.059-1.481,1.482-2.122.858-1.3,1.719-2.6,2.556-3.91.237-.372-.365-.71-.6-.342-.893,1.378-1.773,2.762-2.658,4.144.016-.045.03-.089.046-.133.273-.739-.918-1.034-1.2-.322a61.978,61.978,0,0,0-3,9.4l-.026.039a.1.1,0,0,0-.007.108,44.432,44.432,0,0,0-1.027,12.63c.447,7.427,2.706,14.587,4.437,21.782a132.355,132.355,0,0,1,3.99,26.181c.139,4.025.307,8.075.36,12.1a15.084,15.084,0,0,1-.234,2.292,17.333,17.333,0,0,0-7.822-4.259c-11.626-3.116-19.959,3.952-24.788,13.714-.053.108-.1.22-.153.328a.734.734,0,0,0-.944-.42c-.818.32-3.147-.774-4.178-.715a16.051,16.051,0,0,0-5.972,1.773c-4.264,2.2-6.481,6.85-7.721,11.148-1.713,5.937-1.2,12.1-.962,18.192.263,6.835-1.261,13.22-2.4,19.885-.015.083.114.12.132.035.969-4.354,2.192-8.523,2.737-12.983.725-5.928-.018-11.883.28-17.828.306-6.109,2.474-14.188,8.531-17.226,2.985-1.5,5.081-1.106,8.2-.861,1.085.085.807.554,1.753.163a79.266,79.266,0,0,0-5.514,18.805c-1.693,2.109-3.967,3.65-5.6,5.8a25.19,25.19,0,0,0-3.2,6.268c-.034.089.111.125.146.039a19.152,19.152,0,0,1,4.909-7.389c1.206-1.058,2.38-2.018,3.469-3.112-.772,4.572-1.332,9.157-1.862,13.593-.534,4.465-.981,9-1.492,13.539-2.817,7.022-8.091,13.135-12.816,18.963-3.366,4.151-5.494,8.324-4.38,13.647.02.094.188.074.175-.023-1.055-8.273,4.916-12.628,9.635-18.6A65.692,65.692,0,0,0,29.3,242.823a147.716,147.716,0,0,1-3.228,18.392.694.694,0,0,0-.281.44c-.11.62-.222,1.241-.331,1.862-.464,1.649-.973,3.286-1.54,4.9-2.477,7.051-5.844,13.758-8.519,20.732-2.534,6.607-3.421,13.528-4.677,20.413-2.913,7.267-3.206,15.363-4.178,23.164a18.9,18.9,0,0,0-.885,5.564c0,.011.009.015.011.025-.046.235-.088.472-.137.706-.07.332-.146.66-.22.991a45.337,45.337,0,0,1-6.246,4,.615.615,0,0,0-1.007-.057,4.035,4.035,0,0,1-2.2,1.774,24.909,24.909,0,0,0-2.405.728,10.541,10.541,0,0,0-4.049,2.531.075.075,0,0,0,.107.1,11.256,11.256,0,0,1,5.741-2.372c-.018.016-.038.029-.056.046-3.921,3.569-5.4,8.93-9.6,12.127-.067.052.021.162.091.115,4.27-2.845,5.882-7.861,9.8-11.088a35.506,35.506,0,0,1,5.639-3.5c-.831.93-1.721,1.817-2.5,2.858-1.538,2.048-2.671,4.366-4.8,5.945a.067.067,0,0,0,.069.114,15.267,15.267,0,0,0,4.427-4.468c1.635-2.162,3.9-3.642,5.25-5.919.435-.294.863-.6,1.273-.937-.239.971-.494,1.931-.75,2.888a.472.472,0,0,0-.261.456c.005.148.014.3.02.445-.826,3.036-1.686,6.031-2.373,9.064-.775,1.03-2.236,1.691-3.052,2.644a18.513,18.513,0,0,0-2.74,5.065c-1.879,4.837-1.762,10.273-4.71,14.74-.04.062.026.126.091.113l.173-.031a.066.066,0,0,0-.018-.13c2.557-.128,4.818-12.689,5.468-14.278a17.532,17.532,0,0,1,4.365-6.134,44.474,44.474,0,0,0-.928,9.726.179.179,0,0,0,.358,0A38.75,38.75,0,0,1,.9,361.023c.034,2.285.226,4.558.107,6.975a26.714,26.714,0,0,1-1.7,7.194c-.6,1.776-1.581,5.793-3.178,7.175-.087.075.027.218.125.156,2.658-1.672,4.06-7.625,4.894-10.392a19.05,19.05,0,0,0,.654-3.212H1.81c2.411-1.684,2.421-6.9,2.8-9.455a64.863,64.863,0,0,0,.455-11.141c.184-.552.359-1.107.5-1.671a.559.559,0,0,0-.563-.7c-.005-.2-.01-.39-.015-.587a.454.454,0,0,0-.026-.106q.273-.931.536-1.869c.924,3.551,2.123,7.024,2.828,10.632.991,5.08.353,9.755.432,14.829a.048.048,0,0,0,.1,0c.353-4.713,1.164-8.991.638-13.758-.533-4.832-2-9.71-3.246-14.4.1-.109.2-.218.3-.334a.522.522,0,0,0-.071-.763q.2-.891.38-1.8c.165-.85.307-1.707.45-2.563a11.7,11.7,0,0,0,.592,1.875c.925,2.243,2.065,4.2,2.288,6.677a34.212,34.212,0,0,1-.311,5.542c-.008.11.184.138.2.026.456-2.782,1.246-5.348.681-8.239-.341-1.741-1.308-3.283-1.819-4.974-.776-2.566-.4-4.784.21-7.3a.626.626,0,0,0,.006-.159c2.818-4.8,6.95-9.016,9.669-13.833,5.331-6.461,8.071-15.969,9.239-23.929a42.055,42.055,0,0,0-.246-12.468,62.381,62.381,0,0,1-1.046-8.379,31.852,31.852,0,0,1,.268-3.83,103.084,103.084,0,0,0,2.774-11.8,31.48,31.48,0,0,1-.081,7.833c-.57,3.63-1.251,6.992-.783,10.653.011.09.156.1.15,0-.256-4.556,1.284-8.742,1.967-13.18.559-3.628-.019-7.153-.38-10.752.847-5.857,1.448-11.759,2.154-17.624a47.713,47.713,0,0,1,2.448-4.208l.633-.989a18.7,18.7,0,0,1,.322,5.275c-.3,3.071-1.835,5.851-2.014,8.936,0,.088.126.082.138,0,.519-3.766,2.82-7,2.732-10.891a26.479,26.479,0,0,0-.5-4.4,63.38,63.38,0,0,0,5.176-9.541,25.358,25.358,0,0,0,2.039-11.236c-.293-5.259-2.215-10.7-.42-15.841a.512.512,0,0,0-.011-.389c.3-.479.593-.964.915-1.43.4-.586.826-1.132,1.257-1.661.047-.045.093-.09.142-.134.15-.134.31-.255.463-.384a10.229,10.229,0,0,0,.49,1.649c.357.779.959,1.385,1.3,2.191.446,1.06,2.161,4.75.681,5.618-.054.031-.007.1.048.08,1.27-.564.775-2.879.549-3.906a17.509,17.509,0,0,0-1.034-3.387c-.438-.977-.6-2.077-1.016-3.059,1.179-.884,2.429-1.676,3.679-2.467a13.488,13.488,0,0,1,4.446-2c2.1-.459,4.15.052,6.245-.175a.948.948,0,0,0,.85-.784,22.51,22.51,0,0,1,3.194.818,15.036,15.036,0,0,1,6.379,4.267,3.624,3.624,0,0,0,.481,1.733c.149.242.609.081.489-.2a2.108,2.108,0,0,1-.145-.6c.4.47.785.953,1.166,1.458a23.087,23.087,0,0,1,1.865,3.192c.476.881,1.816,3.779,2.566,4.273-.265-.174-.574.218-.341.427l.225.2a.311.311,0,0,0,.52-.208C79.2,190.4,76.62,186.447,74.852,183.88ZM4.138,356.517a68.989,68.989,0,0,1-.826,7.625c-.233,1.394-.355,3.452-1.48,4.541.463-4.15-.143-8.41.292-12.59.055-.173.107-.347.165-.518a2.554,2.554,0,0,0,.522-1.431c.417-1.086.867-2.162,1.3-3.243C4.194,352.779,4.237,354.656,4.138,356.517Zm15.545-46.383c-2.472,6.41-7.795,11.785-11.124,17.934a.689.689,0,0,0-.218.014A121.993,121.993,0,0,1,11.1,312.148a.457.457,0,0,0,.263-.32c1.842-6.946,2.63-14.062,5.348-20.792,2.337-5.79,5.185-11.359,7.567-17.129.208,2.106.543,4.194.892,6.318a40.083,40.083,0,0,1-.279,13.724,72.674,72.674,0,0,1-2.445,9.569c-.667,2.121-1.647,4.2-2.482,6.311A.559.559,0,0,0,19.683,310.133Zm5-8.979a59.425,59.425,0,0,1-4.573,11.1q.378-.9.672-1.826a.472.472,0,0,0-.077-.458c2.355-5.118,4.612-10.075,5.723-15.765A48,48,0,0,1,24.683,301.155Zm8.409-71.845c.051-.4.1-.8.147-1.2.334-2.574.652-5.239,1-7.945a48.1,48.1,0,0,1,1.428,4.774C34.859,226.2,33.916,227.746,33.091,229.309Zm9.567-24.99c.463,6.443-2.053,12.287-5.2,17.841-.138.243-.554.863-1.11,1.718a40.362,40.362,0,0,0-1.578-5.124.473.473,0,0,0-.312-.29c.459-3.469.985-6.992,1.68-10.472a7.024,7.024,0,0,0,.231.779c.221.58.525,1.119.707,1.713a16.285,16.285,0,0,1,.513,4.434.227.227,0,0,0,.453,0,16.394,16.394,0,0,0-.338-4.6c-.212-.791-.627-1.522-.827-2.314a12.457,12.457,0,0,0-.4-1.643,62.942,62.942,0,0,1,4.9-14.688C40.986,195.838,42.357,200.141,42.658,204.32Z" transform="translate(14.421 -90.81)"/><path class="c" d="M40.465,222.567c-.14.62-1.268,1.284-1.733,1.677-.6.506-1.208,1-1.812,1.5a9.61,9.61,0,0,0-2.705,3.053c-.1.2.2.371.309.174.9-1.621,2.5-2.638,3.968-3.745.814-.615,2.611-1.451,2.688-2.568C41.207,222.266,40.553,222.18,40.465,222.567Z" transform="translate(7.608 -109.023)"/><path class="c" d="M26.419,316.785a47.7,47.7,0,0,0-4.986,15.635c-.884,6.943-2.507,14.787-6.9,20.536-.07.09.087.207.162.12,3.565-4.178,5.466-9.8,6.7-15.011.879-3.705,1.056-7.533,1.947-11.233.829-3.439,2.61-6.311,4.09-9.479C27.733,316.7,26.737,316.124,26.419,316.785Z" transform="translate(10.367 -122.219)"/><path class="c" d="M126.88,383.1c-2.088-3.818-1.871-8.805-3.586-12.81a22.726,22.726,0,0,0-4.8-6.718c-.024-.07-.042-.144-.066-.213-.142-.4-3.207-6.319-3.615-5.746a.841.841,0,0,0-.2-1.214,57.384,57.384,0,0,0-.7-7.108,18.217,18.217,0,0,1,5.512,9.53c.011.067.124.051.121-.016a15.415,15.415,0,0,0-2.252-7.037c-.764-1.228-2.161-3.335-3.7-4.206a40.307,40.307,0,0,0-7.064-16.2,24.319,24.319,0,0,1,3.682,1.66c1.532.828,6.888,2.208,7.32,4.041.058.247.423.137.384-.1-.315-1.965-3.654-2.775-5.152-3.547-1.361-.7-2.569-1.608-3.9-2.326-1.227-.661-2.6-.945-3.808-1.613-.163-.2-.322-.395-.491-.591a66.925,66.925,0,0,0-5.63-6.005c-2.323-2.108-5.771-3.486-7.044-6.348.041-.666.049-1.379.022-2.157-.1-2.916-.286-5.82-.467-8.724.311-2.777.729-5.537.838-8.089.426-10.018-.128-19.916,1.248-29.769.029-.029.05-.069.077-.1,2.782,3.474,5.182,7.712,1.956,11.7-.2.249.147.607.369.356,3.986-4.52,1.494-9.568-1.874-13.622q.07-.485.114-.966c.468-2.163,1.362-4.318,1.2-6.458a1.553,1.553,0,0,0-.715-1.2l.024-.152a.388.388,0,0,0-.748-.2c-.009.027-.016.054-.024.081a1.456,1.456,0,0,0-1.627,1.07l-.008.027a4.97,4.97,0,0,0-.273.966A82.682,82.682,0,0,0,89.3,274.6c-.589,4.18-1.075,8.4-1.418,12.558-.107,1.3-.181,2.6-.237,3.91a36.32,36.32,0,0,0-4.1,4.175c-1.852,2.352-2.334,5.176-3.688,7.772-.047.091.091.171.142.081,1.408-2.488,2.215-5.212,4.178-7.382a33.179,33.179,0,0,1,3.419-3.121c-.083,2.845-.073,5.7.017,8.552a18.115,18.115,0,0,0-5.562,6.81c-.525,1.23-.87,2.521-1.319,3.777-.282.79-1.6,4.722-2.582,5.118a.073.073,0,0,0,.04.141c1.66-.249,2.79-3.764,3.325-4.941a30.889,30.889,0,0,1,2.74-5.489,20.263,20.263,0,0,1,3.429-3.511q.079,1.847.184,3.683c.007.109.017.218.024.328-.136,2.108-.224,4.219-.174,6.337a11.348,11.348,0,0,0,.615,3.6,6.2,6.2,0,0,1-1.809,3.384,1.083,1.083,0,0,0-1.025-.146,24.713,24.713,0,0,0-8.35,6.2.528.528,0,0,0-.607-.176c-2.715.88-5.275,2.189-7.954,3.178-2.128.786-4.006,1.465-5.494,3.207-.149.175.1.426.262.253,1.91-2.028,4.534-2.531,7.133-3.3,1.9-.563,3.717-1.358,5.6-1.955a40.742,40.742,0,0,0-3.4,4.772c-3.176,1.407-6.612,2.695-9.22,4.985-1.785,1.568-4.285,4.548-4.222,6.973a.165.165,0,0,0,.329,0c.382-3.147,3.981-6.408,6.635-7.86a43.73,43.73,0,0,1,5.44-2.314c-.144.26-.289.519-.427.781A47.224,47.224,0,0,0,64.6,349.126a50.283,50.283,0,0,0-1.59,10.937c-6.788,9.194-7.115,21.558-4.176,32.2,2.054,7.434,4.177,15.059,4.875,22.744.25,2.755.22,5.515.238,8.276A20.59,20.59,0,0,0,59.5,434.875,68.635,68.635,0,0,0,60.645,448.5a44.6,44.6,0,0,1-.628,15.7c-.132.71.953,1.026,1.138.3a37.2,37.2,0,0,0,1.666-9.646c-.05-4.607-1.221-9.043-1.629-13.609s-.476-9.228,1.432-13.509a23.346,23.346,0,0,1,1.359-2.571c.007.33.006.66.017.991.128,3.918.611,8.529-1.552,12.054-.145.236.228.444.379.214,2.715-4.117,2.045-9.879,2.02-14.6a58.464,58.464,0,0,1,5.564-6.583c.19-.2-.1-.479-.31-.3a41.513,41.513,0,0,0-5.256,5.209,94.491,94.491,0,0,0-2.224-20.505c-1.6-7.4-4.139-14.754-3.877-22.383A33.36,33.36,0,0,1,62.89,364.19c-.021,1.778-.014,3.557-.01,5.331.011,6.421.326,12.931,2.726,19.008a1.091,1.091,0,0,0,.9.647c1.016,5.185,2.117,10.366,2.9,15.584,1.665,11.093,3.514,22.088,4.935,33.2-3.089,2.723-5.385,7.583-6.946,10.692-2.6,5.182-3.265,10.55-3.906,16.219a40.7,40.7,0,0,1-2.3,10.556c-.985,2.487-2.561,4.743-3.317,7.319-1.275,4.345.227,7.6,3,11.044.294.365.949-.118.669-.5-1.973-2.676-3.5-5.5-2.661-8.936.616-2.512,2.2-4.68,3.306-7a34.92,34.92,0,0,0,2.83-10.884c.734-5.985,1.1-11.509,3.689-17.081a50.445,50.445,0,0,1,5.784-10.232c.078.632.163,1.262.238,1.9a75.18,75.18,0,0,1-4.863,35.638c-1.623,4.182-3.773,8.263-5.355,12.5a.6.6,0,0,0-.482.452c-.358,1.286-.637,2.576-.865,3.866-.046.182-.1.361-.144.544a48.564,48.564,0,0,0-.766,13.89c-.66,2.315-1.446,4.589-2.28,6.71-1.513,3.848-4.511,6.788-6.008,10.7-.19.494.671.853.891.363,1.85-4.115,5.268-7.121,6.685-11.439.328-1,.649-2.039.953-3.09.028.33.052.66.081.991,0,.018.011.029.013.046a140.823,140.823,0,0,0,1.148,28.254c.4,2.632.936,5.236,1.524,7.827-.082,2.519-.761,5.28-.967,7.19a52.851,52.851,0,0,0-.047,12.429c.068.535.922.568.893,0-.261-5.219.291-10.341.593-15.541.028-.483.068-1.032.1-1.6,1.543,6.476,3.281,12.9,4.1,19.481a.43.43,0,0,0-.063.107c-.132.359-.263.708-.395,1.055-.441-2.429-1.029-5.943-2.917-7.085a.221.221,0,0,0-.229.378c1.285.88,1.4,3.2,1.7,4.593.266,1.231.565,2.479.808,3.736a32.042,32.042,0,0,1-3.274,6.214,15.537,15.537,0,0,0-1.493,2.886c-.334.8-.531,2.386-1.2,2.983-.067.059.024.18.1.125.774-.564.649-1.129,1.108-2.1a20.851,20.851,0,0,1,3.024-4.262,14.807,14.807,0,0,0,2.1-3.508c.063.579.106,1.159.111,1.74.041,4.2-3.34,7.566-2.977,11.642a12.412,12.412,0,0,0,.709,3.048c0,.175.008.354.013.532a.416.416,0,0,0-.377.138c-2.544,2.906-6.03,5.716-7.783,9.16a19.843,19.843,0,0,0-1.5,4.5c-1.347,1.978-4.225,2.292-5.459,4.417-.113.2.184.36.309.175,1.114-1.666,3.229-2.01,4.8-3.083a15.177,15.177,0,0,1-2.482,6.015c-.129.168.161.384.3.224,1.823-2.061,2.435-4.542,3.1-7.063a3.808,3.808,0,0,0,.362-.494.378.378,0,0,0-.089-.507c.144-.515.3-1.03.469-1.541,1.5-4.4,5.563-7.172,8.416-10.784.061.677.148,1.352.24,1.995a14.658,14.658,0,0,1,.373,2.585c0,.087-.013.175-.021.261a.473.473,0,0,0-.306.42,8.967,8.967,0,0,1-.381,2.011c-.7.738-1.255,1.6-2.019,2.281a24.827,24.827,0,0,0-2.214,1.754c-.786.865-1.849,2.062-1.7,3.292a.075.075,0,0,0,.15,0c.048-1.422,1.707-3.015,2.893-3.738a11.463,11.463,0,0,0,1.778-1.114c.02-.017.036-.037.055-.054-.7,1.247-1.559,2.431-2.356,3.734a8.771,8.771,0,0,0-1.138,5.133.158.158,0,0,0,.316,0c.069-3.254,1.451-4.911,3.29-7.395a10.767,10.767,0,0,0,2.257-4.98,7.152,7.152,0,0,0,.349-3.261c-.031-.29-.06-.581-.091-.872.934,2.218,1.651,4.481.97,7.2-.574,2.286-2.093,3.907-3,6.07a32.388,32.388,0,0,0-1.482,5.458c-.052.233.311.333.371.1a31.378,31.378,0,0,1,3.593-8.785,9.192,9.192,0,0,0,1.453-3.732c2.018-2.822,2.334-6.571,1.945-9.876-.266-2.259-.949-4.415-1.377-6.641-.482-2.51.052-4.882-.361-7.357a.4.4,0,0,0-.414-.319,19.285,19.285,0,0,0-.4-4.158c.1-.332.2-.666.293-1,.1,1.107.173,2.219.208,3.338a.447.447,0,0,0,.893,0c.417-11.356-3.376-21.8-5.269-32.882-1.648-9.648-1.822-19.172-2.166-28.8a14.313,14.313,0,0,0,.448,1.727.181.181,0,0,0,.2.109c.732,2.875,1.626,5.725,2.634,8.537a78.326,78.326,0,0,1,4.1,19.075c.674,7.009-.476,13.665-.631,20.634-.007.3.466.3.481,0,.316-6.425,1.623-12.566,1.3-19.047a78.878,78.878,0,0,0-2.5-17.216c-1.634-5.827-3.61-11.478-4.817-17.428-.006-.03-.009-.059-.015-.089a21.842,21.842,0,0,1,2.463-7.828,69.289,69.289,0,0,1,4.881-6.664c.213.833.432,1.666.631,2.5a67.682,67.682,0,0,1,1.494,12.557c.4,7.569.078,15.087.248,22.655a.475.475,0,0,0,.948,0c.252-7.593.7-15.063.153-22.655a58.456,58.456,0,0,0-1.1-9.737c-.5-2.039-1.211-4.024-1.859-6.025.406-.561.8-1.127,1.165-1.713.46-.74-.7-1.372-1.186-.67-.161.231-.332.466-.5.7a26.269,26.269,0,0,1-.892-4.042c-.01-.083-.137-.089-.138,0a20.956,20.956,0,0,0,.6,4.647c-2.694,3.735-5.807,7.706-7.362,12.039-.013-4.624-.083-9.185,1.333-13.8,1.832-5.967,5.153-11.417,7.2-17.312,3.627-10.415,5.9-21.831,5-32.88-.439-5.411-.605-10.917-1.512-16.279-.989-5.856-2.3-11.673-3.391-17.511-1.086-5.8-2.348-11.49-3.829-17.205-.419-1.617-.851-3.231-1.279-4.846.786-3.931-.344-9.031-.764-12.6-.036-4.046-.016-8.09-.218-12.12.739,1.76,1.332,3.642,1.967,5.345,1.089,2.922,2.473,5.762,3.3,8.761a33.113,33.113,0,0,1,1.482,9.72c-.044,1.428-.611,11.179-1.587,11.263a.252.252,0,0,0,0,.5l.535,0a.286.286,0,0,0,.273-.2c1.692-6.733,2.518-13.369,1.089-20.2a81.847,81.847,0,0,0-3.4-10.3c-.944-2.686-1.655-5.826-3.28-8.2a.885.885,0,0,0-.639-.395c-.013-.146-.022-.293-.036-.439a66.1,66.1,0,0,1,.973-7.735,49.433,49.433,0,0,1,1.815-6.741c.646-1.439,1.323-2.855,2.066-4.213a48.126,48.126,0,0,1,4.894-7.4c2.261-2.114,4.808-3.916,7.2-5.894a1.462,1.462,0,0,0,1.61.037c2.734-1.568,4.45-3,5.434-4.859,1.233,1.206,2.76,2.32,4.465,3.72,9.9,8.126,15.321,20.456,16.357,32.781a1.034,1.034,0,0,0-.142.11c-6.807,6.454-7.152,17.67-6.8,27.016-1.022.461-2.08.85-3.094,1.382a16.6,16.6,0,0,0-6.918,6.651.191.191,0,0,0,.332.187c2.227-3.72,5.778-5.517,9.727-7.037.063,1.432.136,2.812.2,4.114a.165.165,0,0,0,.329,0c.056-1.367.081-2.843.107-4.374a16.083,16.083,0,0,0,3.977-2.532c-.224,1.517-.434,3.033-.606,4.55-2.418,2.4-5.334,3.75-7.926,6.182A18.236,18.236,0,0,0,97,399.33c-.557,1.227-2.863,6.7-1.294,7.9.061.047.143-.027.088-.084-.756-.791.44-3.671.727-4.545a18.209,18.209,0,0,1,4.721-7.755c2.335-2.146,5.026-3.488,7.307-5.391a55.825,55.825,0,0,0-.144,9.012c-2.106,11.581-6.277,22.714-10.067,33.954a49.6,49.6,0,0,0-2.513,20.364q.055.491.132.976a.475.475,0,0,0-.178.4,155.473,155.473,0,0,0,1.07,19.256c.111.764.232,1.528.356,2.292.024.364.041.727.067,1.09a.5.5,0,0,0,.178.358c.05.294.111.586.163.88a.746.746,0,0,0,0,.383c.063.245.138.476.206.714.984,5.315,2.2,10.593,3.469,15.845.186.768.348,1.535.525,2.3-.232,1.849-.8,3.636-.964,5.5-.38,4.455.525,8.794.955,13.206.47,4.826.37,9.642.635,14.473.233,4.233-.471,8.379-.319,12.559a.076.076,0,0,0,.151,0c.369-4.28,1.062-8.214.933-12.559-.158-5.318.138-10.6-.334-15.921-.4-4.547-.943-8.9-.2-13.4,1.129,5.349,2.045,10.711,2.683,16.173.852,7.3-.3,14.163-.455,21.438-.02.926-.01,1.853.006,2.78a.51.51,0,0,0-.112.361c.059.978.1,1.962.152,2.947a33.935,33.935,0,0,0-.617,13.317.4.4,0,0,0,.3.325,60.043,60.043,0,0,0,3.011,13.926.45.45,0,0,0-.109.469,30.892,30.892,0,0,1,.966,4.911c-1.184,5.479-5.716,8.99-7.5,14.174a13.749,13.749,0,0,0,.748,10.578c.082.186.408.053.339-.138-2.138-5.925-.551-9.976,2.795-14.909a33.661,33.661,0,0,0,3.953-7.016c.028.221.057.442.086.663-.022.641-.034,1.273-.022,1.893-1.228,4.667-4.307,8.962-4.758,14.018-.551,6.173,3.3,10.69,4.148,16.452.011.075.135.055.135-.017-.006-2.506-1.221-4.869-2.053-7.208-1.362-3.83-1.951-7.988-.717-11.927a35.945,35.945,0,0,1,1.34-3.5c-.8,3.2-1.22,5.771.819,9.052a23.008,23.008,0,0,0,4.378,5.014,14.107,14.107,0,0,1,5.18,10.55c.006.084.138.087.138,0,.005-3.943-.722-7.578-3.664-10.445a28.662,28.662,0,0,1-5.236-6.286c-1.727-3.106-.628-6.466-.015-9.728a.556.556,0,0,0-.5-.65c.355-.8.7-1.606,1.018-2.417a15.9,15.9,0,0,0,3.029,7.509,25.97,25.97,0,0,1,4.149,7.635c.76,2.293,2.587,6,1.375,8.4a.075.075,0,0,0,.131.073c1.148-1.935.5-5.059-.351-7.758a28.92,28.92,0,0,1,3.14,12.249.075.075,0,0,0,.15,0,24.352,24.352,0,0,0-4.324-16.094.506.506,0,0,0-.434-.212,28.973,28.973,0,0,0-2.93-4.884,15.9,15.9,0,0,1-1.931-3.975c2.007,3.519,5.54,5.593,6.515,9.912.029.128.217.07.2-.053-.63-4.436-3.734-6.5-5.655-10.26a16.469,16.469,0,0,1-1.317-3.671c.2-1.011.592-2.4.617-2.589.089-.673.149-1.349.2-2.027a41.115,41.115,0,0,0-.891-16.416c-1.473-6.161-3.3-11.951-4.253-18.1,0-.235,0-.469,0-.7.561-2.367,1.251-4.741,1.967-7.2,1.758-6.029,1.957-11.245,1.892-17.477a51.248,51.248,0,0,1,3.394-18.218c.027-.077.056-.151.083-.228.766,2,1.33,4.105,1.974,6.269,1.3,4.376,2.562,8.845,4.051,13.161.078.225.442.132.371-.1-1.256-4.116-2.254-8.362-3.369-12.52a78.517,78.517,0,0,0-2.353-8.571c1.826-4.529,4.152-8.913,4.688-13.806.636-5.8-1.966-9.893-3.445-15.277-1.594-5.8.076-11.909-1.5-17.753-1.071-3.975-3.349-6.71-5.594-9.74a4.712,4.712,0,0,0-1.777-2.535c-.2-.3-.388-.607-.575-.921a22.455,22.455,0,0,1-3.16-12.794c1.967-5.262,3.928-10.754,5.537-16.339.354,4.842,1.387,9.4,1.944,14.436a62.9,62.9,0,0,1,.268,8.558c-.04,1.494.244,6.776-1.154,7.716a.093.093,0,0,0,.1.16c.977-.531,1.044-1.649,1.2-2.648a69.712,69.712,0,0,0,.611-9.418,60.689,60.689,0,0,0-.466-9.671c-.337-2.34-1.116-4.562-1.313-6.934-.175-2.117-.056-4.26-.056-6.386.662-2.653,1.233-5.318,1.654-7.984a44.931,44.931,0,0,1,1.923,7.322c.66,4.179.217,8.332.782,12.48.652,4.791,1.637,9.271,1.465,14.157-.165,4.695-.41,9.436-1.025,14.1-.021.169.284.211.31.04,1.433-9.115,2.4-17.807.866-26.969-.8-4.795-.193-9.68-.887-14.528-.107-.746-.248-1.49-.406-2.231a.2.2,0,0,0,.181-.173c.42-3.331,2.018-6.816,2.765-10.125a40.706,40.706,0,0,0,1.2-9.348c-.068-4.913-.6-11.935-4.407-15.767.215-2.454.357-4.9.394-7.323.4.534.789,1.073,1.149,1.647a.555.555,0,0,0-.034.924c.313.248.611.508.912.766.089.208.185.407.265.63a44.551,44.551,0,0,1,2.173,9.564c.831,6.977,1.457,14.116-.175,21.042a.254.254,0,0,0,.49.131c2.16-7.422,1.7-15.131.914-22.71a44.233,44.233,0,0,0-1.076-6.126,21.652,21.652,0,0,1,4.557,7.807c.905,2.835,1.248,6.623,2.906,9.119A.082.082,0,0,0,126.88,383.1ZM69.988,580.492a35.205,35.205,0,0,0,.654,7.075c1.068,4.338,2.336,9.884-.11,14.057a16.944,16.944,0,0,0-1.119-6.478c.028.085-.647-1.731-1.146-2.987-.023-.252-.05-.5-.071-.754a.556.556,0,0,0-.466-.517c-.519-2.5.4-4.729,1.295-7.088A20.945,20.945,0,0,0,69.988,580.492Zm31.127-93.55c-.12-.506-.236-1.012-.353-1.519q.428.636.888,1.245A.738.738,0,0,0,101.115,486.942Zm7.457,72.488c.844,2.893,1.723,5.736,2.28,8.7a36.165,36.165,0,0,1,.688,7.9.483.483,0,0,0-.747.38,45.806,45.806,0,0,1-.23,7.043c-.1-.551-.19-1.1-.269-1.661a13.124,13.124,0,0,0,0-4.727c-.546-2.888-2.361-5.324-2.992-8.251a75.762,75.762,0,0,1-1.388-10.537,37.013,37.013,0,0,1,.217-6.164C106.873,554.563,107.86,556.994,108.571,559.43Zm2.511-55.291a46.952,46.952,0,0,0-2.534,16.153c.049,3.607.41,7.311-.167,10.891a69.234,69.234,0,0,1-1.928,7.748c.006-.332.012-.664.027-.995.306-7.277,1.316-14.117.449-21.423a185.718,185.718,0,0,0-3.307-18.958c-.121-.54-.248-1.079-.372-1.619a39.086,39.086,0,0,0-.951-8.447c2.138,2.619,4.717,4.953,7.433,7.691a17.036,17.036,0,0,1,3.14,4.409C112.226,501.1,111.6,502.614,111.082,504.14Zm-7.632-67.364a27.43,27.43,0,0,0,3.268,5.869c2.108,3.775.473,8.032.052,12.074-.353,3.383,2.034,8.239.8,11.28-.081.2.273.347.365.148.627-1.367.29-2.637.113-4.114a30.388,30.388,0,0,1,.413-10.932,23.639,23.639,0,0,0,.592-5.087,26.7,26.7,0,0,1,2.429,4.332c2.653,6.225,1.123,12.468,2.083,18.9.454,3.045,1.928,5.534,2.9,8.425a19.922,19.922,0,0,1,.451,11.239,57.353,57.353,0,0,1-3.362,9.1c-.092-.168-.172-.339-.27-.5-1.8-3.022-4.62-5.435-7.06-7.97a26.638,26.638,0,0,1-7.038-11.466c-.131-.675-.261-1.35-.381-2.027-.224-1.267-.406-2.537-.563-3.809-.083-3.228-.2-6.453-.332-9.675.428,2.8.5,5.711,1.5,8.34.067.177.355.107.3-.079-.979-3.191-.632-6.738-1.126-10.019a55.518,55.518,0,0,1-1.065-9.453,49.125,49.125,0,0,1,.819-7.734,77.3,77.3,0,0,0,.525,7.942,41.781,41.781,0,0,0,.432,7.971c.531,2.8,2.238,4.751,3.795,7.081,2.126,3.182,4.74,6.1,6.546,9.472,2.649,4.949,3.3,11.679,2.393,17.1-.028.164.222.239.265.071a27.882,27.882,0,0,0-4.1-22.1c-2.054-3.126-4.4-6.16-6.256-9.374-2.4-4.157-1.487-9.694-2.176-14.352a87.524,87.524,0,0,1,.5-11.715c.611-2.038,1.285-4.047,2-6A19.063,19.063,0,0,0,103.45,436.775Zm6.232-56.05c-.875.753-1.715,1.543-2.624,2.263a9.61,9.61,0,0,1-1.638,1.023c.158-8.487.605-18.578,6.379-24.493,0,.1.015.208.018.312C112.054,366.835,110.768,373.782,109.682,380.725Zm7.141,6.917c-.271,3.013-.728,5.975-1.23,8.958-.322,1.911-1.043,3.831-1.242,5.756-.608-2.606-1.467-5.181-2.333-7.723.2-1.951.315-3.9.322-5.837a1.172,1.172,0,0,0-.642-1.106c.76-5.706,1.686-11.5,2.3-17.264C117.182,375.041,117.266,382.709,116.824,387.642Z" transform="translate(5.126 -113.865)"/><path class="c" d="M116.776,335.839a18.869,18.869,0,0,0-7.177-1.355.67.67,0,1,0,0,1.34,43.682,43.682,0,0,1,5.8.565c.669.124,3.45.584,3.644,1.372.059.242.487.2.458-.06C119.386,336.641,117.623,336.185,116.776,335.839Z" transform="translate(-2.864 -124.739)"/><path class="c" d="M100.629,282.843c-.485-.68-1.648-.023-1.151.649,2.494,3.376,3.967,6.568,3.5,10.781-.342,3.126-1.926,5.772-1.826,8.986a.069.069,0,0,0,.138,0c.255-4.2,2.841-7.5,2.859-11.8C104.167,288.124,102.546,285.536,100.629,282.843Z" transform="translate(-1.522 -117.464)"/><path class="c" d="M93.282,268.954A19.252,19.252,0,0,0,87.633,276c-.917,1.979-1.459,7.522-4.19,7.636a.159.159,0,0,0,0,.318c2.224.046,2.878-2.142,3.46-3.854a20.809,20.809,0,0,1,7.214-10.334C94.708,269.307,93.867,268.488,93.282,268.954Z" transform="translate(0.73 -115.538)"/><path class="c" d="M91.966,285.029a14.227,14.227,0,0,0-3.909,4.171c-.59.984-1.057,2.03-1.643,3.016-.511.856-1.86,3.273-2.965,3.327a.126.126,0,0,0,0,.252c1.457.072,2.658-1.914,3.4-2.936,1.857-2.548,2.915-5.068,5.662-6.924C93.088,285.546,92.516,284.626,91.966,285.029Z" transform="translate(0.725 -117.796)"/><path class="c" d="M104.179,216.434l-.293.284c-.031.03.017.077.049.046l.292-.283C104.259,216.452,104.21,216.4,104.179,216.434Z" transform="translate(-2.155 -108.197)"/><path class="c" d="M119.038,218.018a8.149,8.149,0,0,1-1.9,5.044c-1.185,1.306-3.6,3.09-5.407,3.306a.139.139,0,0,0,0,.279,5.453,5.453,0,0,0,3.084-.995,13.588,13.588,0,0,0,2.995-1.942,8.854,8.854,0,0,0,2.438-5.692C120.316,217.274,119.093,217.268,119.038,218.018Z" transform="translate(-3.237 -108.342)"/><path class="c" d="M176.87,360.8c-2.445-5.747-7.072-10.22-10.181-15.559-.583-3.838-.666-7.738-1.476-11.566-.126-.591-1.187-.468-1.107.145.35,2.666.58,5.287.85,7.877-.064-.165-.131-.329-.2-.494a5.623,5.623,0,0,0-.261-1.045.7.7,0,0,0-.178-.267c-.433-1.313-.821-2.632-1.128-3.965,0-.23,0-.46-.006-.691a.5.5,0,0,0-.241-.432,37.376,37.376,0,0,1-.724-6.231c-.107-3.519.292-7.171-.355-10.669.079.1.15.2.23.3,1.324,1.626,3.108,2.807,4.338,4.486,1.629,2.224,2.056,4.866,2.442,7.5.03.205.4.159.377-.05-.35-3.4-.9-6.7-3.252-9.379a48.1,48.1,0,0,1-6.719-10.215c-.541-1.262-1.077-2.525-1.533-3.8-1.257-3.524-2.443-7.138-3.906-10.588-2.3-5.425-4.884-11.223-5.708-17.138a.827.827,0,0,0,1.183-.867c-.334-2.192-.741-4.371-1.143-6.548a21.505,21.505,0,0,1,.612-2.618c3.313,5.012,6.745,9.576,9.052,15.3,1.239,3.076,2.118,6.262,3.374,9.341,1.24,3.039,2.921,5.986,3.846,9.116a.2.2,0,0,0,.384-.1c-.77-3.206-2.274-6.139-3.414-9.23-.663-1.8-1.2-3.638-1.746-5.47a17.59,17.59,0,0,1,2.9,3.249c.422.654,2.1,3.442,1.374,4.324-.118.144.08.349.213.206.767-.819-.129-2.814-.469-3.653a16.266,16.266,0,0,0-4.048-5.207.352.352,0,0,0-.33-.1c-.369-1.2-.752-2.395-1.2-3.568-2.314-6.012-5.552-10.842-9.352-15.952.964-2.544,2.2-5.041,2.5-7.763.452-4.078-.508-8.357-.616-12.441-.077-2.938-.009-5.9-.03-8.852q.223.93.42,1.854c1.051,5,.743,10.05,1.654,15.025.813,4.433,3.243,8.421,4.262,12.819.555,2.4.851,4.854,1.247,7.28.331,2.029,1.561,5.69.7,7.621-.1.228.227.432.356.2,1.458-2.614-.313-7.5-.692-10.2-.8-5.657-2.949-10.531-4.326-16.007-1.395-5.55-.52-11.5-1.6-17.164a62.149,62.149,0,0,0-2.447-9.2,33.527,33.527,0,0,0-1.507-6.787,36.165,36.165,0,0,0-9.195-14.565l-.018-.027a34.091,34.091,0,0,0-2.341-4.7,17.52,17.52,0,0,0-10.026-7.853,16.723,16.723,0,0,0-7.388-.592c-.283-.024-.565-.051-.852-.058-6.078-.173-10.739,4.2-14.609,8.188a.928.928,0,0,0-.211,1.078c-.494.6-.978,1.2-1.439,1.792a.765.765,0,0,0,.447,1.15c-.021.046-.043.092-.064.138a44.849,44.849,0,0,0-3.092,6c-.39.911,1.216,1.568,1.657.675,4.14-8.379,10.516-17.161,21.566-14.3a23.344,23.344,0,0,1,7.7,4.009c4.883,5.753,7.386,12.389,9.481,19.537-.062.608-.126,1.158-.162,1.59-.279,3.358-1.168,6.617-1.714,9.934a43.532,43.532,0,0,0,.36,15.47c.164.856,1.467.48,1.337-.356-1.184-7.673-.34-14.61.5-22.251.063-.572.179-1.353.292-2.234.037.132.075.262.112.395.1.618.206,1.235.31,1.852.035.509.074,1.011.121,1.5.554,5.687.832,11.393,1.26,17.089.652,8.658,1.15,17.192,2.966,25.623a29.836,29.836,0,0,0,.2,5.653,58.133,58.133,0,0,0,1.046,6.436.61.61,0,0,0-.16.519c1.292,8.387-.907,17.235-.019,25.708.476,4.541,2.638,12.724,6.568,15.761a.125.125,0,0,0,.143.017l.4-.256a.087.087,0,0,0-.09-.149c-1.279.629-4.653-8.769-4.875-9.482a31.183,31.183,0,0,1-1.054-11.509c.219-3.68.085-7.371.324-11.05.111-1.693.289-3.26.317-4.82,1.5,3.582,3.355,7.037,4.532,10.735.786,2.468,1.775,4.875,2.778,7.277a.508.508,0,0,0,.024.134c.3.708.606,1.42.917,2.131a72.992,72.992,0,0,1,2.551,6.917c1.22,4.068.541,8.508.774,12.671a36.128,36.128,0,0,0,1.337,8l-.021.857c-.24-.529-.488-1.057-.754-1.58-3.09-6.075-5.845-11.248-7.055-18.009-.144-.806-1.375-.451-1.259.335a37.432,37.432,0,0,0,5.117,14.472,62.487,62.487,0,0,1,3.884,7.573c-.155,7.049-.128,13.971,1.267,21.041a78.968,78.968,0,0,0,3.114,10.968.611.611,0,0,0-1.009.543,26.7,26.7,0,0,1,.267,6.726c-.123,1.365-.691,2.875-.117,4.193a.2.2,0,0,0,.236.13l.183-.07a.163.163,0,0,0,.119-.151l0-.224a.125.125,0,0,0-.242-.032,22.466,22.466,0,0,0,.707-10.717c2.005,5.624,4.395,11.156,6.391,16.706.023.064.127.038.106-.028-2.83-8.878-6.315-17.749-8.3-26.849a82.725,82.725,0,0,1-1.455-18.257,10.563,10.563,0,0,0,.429,1.593.2.2,0,0,0,.181.116,33.372,33.372,0,0,1,.787,4.926.1.1,0,0,0,.206,0,27.8,27.8,0,0,0-.947-8.2.79.79,0,0,0,.428-.244q.531,1.043,1.12,2.037a53.136,53.136,0,0,0,1.271,6.61c-.271-.123-.7.022-.657.368.978,7.848.155,16.683,4.064,23.841,3.446,6.31,4.5,13.284,7.451,19.77.032.07.148.02.126-.051-1.812-5.84-2.292-12.6-5.176-18.042a30.872,30.872,0,0,1-3.862-12.611c-.364-4-.9-7.968-1.561-11.929a34.163,34.163,0,0,0,1.563,4.16c1.946,4.286,4.186,8.489,5.733,12.927,1.56,4.478,4.462,8.76,5.514,13.362.02.085.144.046.132-.035-.65-4.4-3.194-8.57-4.419-12.861a79.729,79.729,0,0,0-4.188-11,62.161,62.161,0,0,1-4.115-11.593c2.166,3.171,4.574,6.19,6.661,9.641,4.354,7.194,6.034,15.545,6.15,23.845a.138.138,0,0,0,.275,0C180.455,374.746,179.6,367.227,176.87,360.8Zm-29.587-94.341c-.349-2.188-.64-4.385-.783-6.606-.255-3.95-.611-7.895-.956-11.839a.719.719,0,0,0,.038-.217c-.071-2-.121-4.01-.175-6.015a.824.824,0,0,0,.525-.788c-.138-4.083-.477-8.236-.993-12.341a.723.723,0,0,0,.242-.781q-.431-1.79-.863-3.558c-.067-.417-.121-.841-.192-1.255-.23-1.337-.4-3.265-.768-5.186a.949.949,0,0,0,.236-.892c-.154-.632-.356-1.273-.58-1.919a32.191,32.191,0,0,1,4.229,8.465.833.833,0,0,0-.866,1.185,58.913,58.913,0,0,1,2.49,5.752,57.553,57.553,0,0,1,.561,6.072c.145,3.5-.087,7,.011,10.5.1,3.734.831,7.5.725,11.229-.074,2.638-1.127,5.127-2.109,7.591A.672.672,0,0,0,147.284,266.458Z" transform="translate(-1.674 -105.295)"/><path class="c" d="M112.414,111.982a41.7,41.7,0,0,0-1.21-5.539.222.222,0,0,0,.038-.153c-.286-2.17-.875-4.213-1.041-6.428-.168-2.237-.342-4.463-.668-6.685-.058-.395-.776-.306-.728.1.29,2.507.472,5.019.69,7.532.033.372.095.729.157,1.086-.658-1.691-1.391-3.355-2.161-5.021a11.179,11.179,0,0,0-.954-5.458c-.15-.334-.761-.091-.615.25a12.15,12.15,0,0,1,.97,3.924c-.748-1.585-1.522-3.175-2.305-4.8-.249-.516-1.009-.066-.782.441,3.483,7.8,7.042,15.117,7.537,23.648a131.016,131.016,0,0,1-4.345-12.388c-.17-.565-1.075-.328-.914.242a82.437,82.437,0,0,0,3.035,9.183c.718,1.729,1.621,3.329,2.277,4.985a60.556,60.556,0,0,1-2.206,15.018c-.046-.912-.138-1.8-.181-2.549a109.99,109.99,0,0,0-1.412-11.037c-.095-.6-1.029-.341-.94.25.443,2.952,1.019,5.888,1.38,8.851.2,1.673.789,4.809.456,7.1q-.195.707-.395,1.41a2.914,2.914,0,0,1-.294.513.2.2,0,0,0,.064.289c-.492,1.709-1,3.405-1.487,5.088-.063.214-.123.426-.186.641.053-4.574-1.514-9.388-2.441-13.66-.12-.552-.991-.318-.875.232,1.074,5.1,3.145,10.781,2.549,16.084a171.554,171.554,0,0,0-4.649,19.648,85.949,85.949,0,0,0-.911,10.766c-.084,2.3-.776,6.31.652,8.269a.183.183,0,0,0,.325-.04l.2-.492c.028-.069-.077-.123-.126-.071.42-.447.01-4.639.081-5.515.155-1.912.414-3.817.6-5.727.476-4.913,1.482-9.625,2.434-14.456,1.551-7.876,4.525-15.3,6.459-23.092a79.486,79.486,0,0,0,2.136-11.94,9.785,9.785,0,0,0,.163-2.438A42.654,42.654,0,0,0,112.414,111.982Z" transform="translate(-1.56 -90.56)"/><path class="c" d="M116.536,240.591a22.642,22.642,0,0,0-1.727-3.125c-.138-.31-.278-.605-.419-.882a43.059,43.059,0,0,0-2.325-4.042,27.552,27.552,0,0,0-1.991-3.494,8.926,8.926,0,0,0-5.416-3.493.116.116,0,0,0-.113-.113q-.317-.028-.647-.043c-.276-.048-.555-.084-.834-.115,1.175-.9,1.2-2.988,1.245-4.373.073-2.3-.507-5.544-3.1-6.538-.032-.012-.065-.019-.1-.03.022-1.256-.064-2.491-.146-3.489-.322-3.929-.411-7.947-.8-11.873.211-1.254.474-2.491.8-3.686a.641.641,0,0,0-.939-.7,10.739,10.739,0,0,0-1.6,1.121.8.8,0,0,0-.78.76c0,.026,0,.052,0,.077-.978,1.323-.973,2.888-.853,5.583a17.732,17.732,0,0,0,.3,2.413c-.041,3.111-.45,7.088.11,10.537-.177.1-.349.218-.521.334a37.023,37.023,0,0,0-1.016-6.706c-.472-1.849-.948-4.722-2.8-5.773a.668.668,0,0,0-.777.1c-.948.985-1.482,1.583-1.362,2.851.2,2.087,1.262,4.019,2.039,6.018a.632.632,0,0,0-.043.292,14.154,14.154,0,0,0,.977,4.8c.038.169.083.338.127.506a11.33,11.33,0,0,0-1.7.9.593.593,0,0,0-.1.737,6.286,6.286,0,0,1,.672,1.144,11.3,11.3,0,0,0-.285,2.726c0,.052,0,.114,0,.169a7.372,7.372,0,0,0-.253.9c-.044.093-.093.18-.136.273-.535,1.171-1.481,2.653-.635,3.87a1.117,1.117,0,0,0,.463.383,2.364,2.364,0,0,1-.122.22.2.2,0,0,0-.01.224c-2.534,1.871-4.28,4.426-4.211,7.613.169,7.627,9.81,13.42,17.173,15.068a10.7,10.7,0,0,0,6.9.533,6.237,6.237,0,0,0,4.108-2.023C118.044,247.536,117.855,243.675,116.536,240.591Zm-4.369-3.762c2.893,5.252,4.279,14.694-5.007,12.7-4.1-.883-8.781-3.586-12.193-5.939-3.8-2.624-5.418-7.495-2.083-11.16,1.427-1.568,3.454-2.494,4.835-4.048a.725.725,0,0,0,.085-.138,5.1,5.1,0,0,1,2.054-.506.192.192,0,0,0,.177-.139c6.072-.167,8.606,3.571,11.7,8.49.031.049.06.1.091.151C111.936,236.433,112.052,236.631,112.167,236.829Z" transform="translate(0.139 -105.126)"/></g><g transform="translate(3.74)"><path class="d" d="M162.761,346.727c-.095-.081-.193-.156-.288-.235a13.532,13.532,0,0,1,4.188.555c.237.107.447-.226.208-.344a19.521,19.521,0,0,0-3.819-.857c-.657-.167-1.35-.316-2.037-.488a27.37,27.37,0,0,1-4.262-3.54,45.511,45.511,0,0,1-4.607-6.733c.164-6.349.576-12.691.409-19.061a68.64,68.64,0,0,0-1.18-10.655c-.063-1.114-.153-2.228-.311-3.341-.06-.422-.146-.843-.221-1.265a33.893,33.893,0,0,0-3.182-12.668c-.818-1.6-1.744-3.164-2.705-4.713q-.546-1.255-1.055-2.509.6.427,1.271.8a8.276,8.276,0,0,1,3.432,3.044c.772,1.3,2.025,3.277,2.2,4.711a.137.137,0,0,0,.274,0c.062-2.064-1.539-5.173-2.875-6.724a11.017,11.017,0,0,0-2.531-1.86,11.394,11.394,0,0,1-2.748-2.442c-2.131-5.544-3.862-11.119-5.617-16.877a69.418,69.418,0,0,1-2.163-9.583c-.1-1.09-.175-2.183-.256-3.276,1.257,2.435,2.854,4.645,4.351,7.035,2.161,3.45,5.741,9.709,3.938,13.881-.065.152.2.26.276.113,1.475-2.863,0-7.182-1.031-9.934-1.912-5.1-5.578-9.28-7.553-14.36a.632.632,0,0,0-.245-.3c-.075-1.095-.149-2.191-.229-3.28-.112-1.526-.247-3.041-.369-4.552-.095-6.923.233-13.893.241-21.019q0-.985-.011-1.969a31.843,31.843,0,0,1,5.5,15.295c.286,2.958-.151,6.058-.154,9.015s.378,5.559.2,8.955h.013c.355-4.244.154-7.99.438-11.911a34.541,34.541,0,0,0-.2-9.01c-.956-5.027-2.5-10.271-5.841-14.3a72.153,72.153,0,0,0-.713-8.384,34.85,34.85,0,0,1,3.8,7.017c1.106,2.393,4.626,7.212,3.5,9.945-.077.187.249.321.339.138,1.292-2.611-1.41-7.1-2.507-9.527-1.525-3.374-2.764-7.182-5.53-9.839a41.816,41.816,0,0,0-1.6-5.911,8.939,8.939,0,0,0,1.644.759c1.3.432,3.853,1.7,3.234,3.433-.075.21.282.36.377.153.549-1.211-.348-2.372-1.257-3.175a6.5,6.5,0,0,0-1.923-1.12,12.062,12.062,0,0,1-2.634-1.519,31.543,31.543,0,0,0-4.047-7.219,22.486,22.486,0,0,0-1.968-3.162c2.721.878,5.705,1.108,7.96,2.963.239.2.577-.116.349-.337-2.485-2.408-5.931-2.588-9-3.945a.541.541,0,0,0-.4-.02,25.232,25.232,0,0,0-8.123-5.817c.562-.192,1.116-.4,1.672-.648a5.311,5.311,0,0,1,4.7.058c.292.128.551-.274.257-.423a6.661,6.661,0,0,0-3.665-.855,5.818,5.818,0,0,0-1.457.434c-.907.347-1.824.611-2.753.873a40.667,40.667,0,0,0-7.136-2.271,27.1,27.1,0,0,0-4.694-.6c-.141-.023-.285-.04-.428-.061a33.945,33.945,0,0,0-3.881-.605,11.059,11.059,0,0,0-4.635.594.942.942,0,0,0-.231-.111c-1.025-2.624-2.039-5.254-2.85-7.968-1.7-5.679-3.212-10.92-2.329-16.871.786-5.3,2.973-10.061,4.9-15.05,1.218-3.151,2.524-6.266,3.671-9.4.126-.223.243-.449.362-.66a48.058,48.058,0,0,1,3.337-5.069c.272-.366-.365-.73-.629-.355q-1.112,1.585-2.09,3.25c1.875-5.749,2.961-11.611,1.7-17.912a.4.4,0,0,0-.312-.309c-.023-.107-.052-.211-.071-.319a35.554,35.554,0,0,0-.894-4.721c-.148-.445-.864-.261-.728.193.408,1.364.6,2.752.887,4.139.062.3.146.589.234.879a.356.356,0,0,0-.072.261,31.546,31.546,0,0,1,.033,7c-.548-4.476-2.479-9.245-2.853-12.939-.062-.61-1.045-.629-1,0,.312,4.723,3.385,10.8,3.4,16.047a47.309,47.309,0,0,1-1.185,4.83c-.006.009-.01.02-.016.03a.055.055,0,0,0-.005.04c-.451,1.494-.966,2.974-1.517,4.451-.237-2.357-1.065-4.859-1.264-6.721-.049-.459-.79-.474-.755,0,.163,2.244,1.417,5.263,1.569,7.911-1.048,2.714-2.2,5.412-3.318,8.134-.112.273-.226.548-.341.822a45.787,45.787,0,0,0-.392-8.094c-.052-.446-.786-.447-.728,0a41.459,41.459,0,0,1,.419,9.772c-2.049,4.878-4.188,9.994-4.7,15.244a32.347,32.347,0,0,0,1.587,16.793,34.3,34.3,0,0,0,3.366,6.475,18.332,18.332,0,0,0-5.783,2.425,21.38,21.38,0,0,0-7.915,7.131,35.289,35.289,0,0,0-2.325,4.311c-1.014-3.738-2.516-7.394-5.262-10.2-.256-.261-.522-.51-.793-.75.114-.5.21-.924.283-1.152a47.13,47.13,0,0,0,1.567-5.608,48.23,48.23,0,0,0,1.02-9.039c-.015-6.36-1.643-12.412-3.274-18.505a.2.2,0,0,0,.155-.2c-.088-3.056,1.6-6.171,2.715-8.969.156-.39-.5-.56-.649-.173-1,2.528-2.376,5.342-2.546,8.125q-.294-1.1-.58-2.211c-1.138-4.415-2.424-9.287-3.353-14.283,0-.013.017-.018.019-.034a12.779,12.779,0,0,1,2.089-5.782c.232-.342-.345-.67-.569-.321a12.887,12.887,0,0,0-1.8,4.6c-.4-2.381-.724-4.779-.887-7.166.926-2.7,3.011-5.326,4.244-7.522a.45.45,0,0,0-.782-.441,71.113,71.113,0,0,0-3.553,6.215c-.322-8.872,1.6-17.419,8.65-23.8.422-.382-.19-.933-.622-.6a22.819,22.819,0,0,0-7.028,9c.368-1.092.808-2.163,1.236-3.231.164-.409-.539-.605-.689-.183-.422,1.194-.841,2.39-1.183,3.607-.22.782-.193,2.286-.672,2.909-.071.093,0,.191.095.229a38.235,38.235,0,0,0-1.346,11.442,25.591,25.591,0,0,1-.917-4.8,37.169,37.169,0,0,1,.343-6.5c.051-.462-.682-.448-.741,0-.66,4.945.035,8.7,1.391,13.315A81.151,81.151,0,0,0,63.3,127.639c-.158-.392-.3-.79-.43-1.189a21.927,21.927,0,0,1-.932-4.82c-.041-.453-.764-.466-.742,0a15.16,15.16,0,0,0,2.484,7.674c.056.24.111.484.169.721,2.053,8.516,5.412,17.186,5.949,25.929a57.05,57.05,0,0,1-.68,13.613c-.328,1.853-.939,3.687-1.365,5.539-6.33-4.66-15.886-4.216-23.315-1.028-1.8-.123-3.583-.586-5.375-.543a3.525,3.525,0,0,0-2.549,1.437.2.2,0,0,0,.292.281c1.447-1.426,2.555-1.222,4.452-.807.573.125,1.144.225,1.717.31a24.648,24.648,0,0,0-4.062,2.517,34.135,34.135,0,0,0-6.808,7.031.526.526,0,0,0-.376.028c-1.4.619-2.69.582-3.65,1.86-.764,1.017-1.646,2.029-1.546,3.352a.165.165,0,0,0,.329,0c.012-1.214.991-2.235,1.813-3.083a5.071,5.071,0,0,1,2.675-1.059A47.458,47.458,0,0,0,25.6,197.825a.513.513,0,0,0-.157.12c-2.555,2.927-6.276,5.143-6.282,9.425,0,.275.422.271.439,0A8.817,8.817,0,0,1,22.42,202,30.2,30.2,0,0,1,25,199.834a104,104,0,0,0-2.31,10.623c-.225,1.324-.392,2.651-.537,3.979a16.127,16.127,0,0,0-2.74,9.815,23.428,23.428,0,0,1-.908,7.8c-.128.365-1.807,5.55-2.619,4.981-.051-.035-.114.044-.067.083l.313.266a.08.08,0,0,0,.09.012c1.881-.936,3.062-5.188,3.527-6.913a35.935,35.935,0,0,0,.678-7.048,17.054,17.054,0,0,1,1.473-6.213q-.179,2.479-.236,4.965c-.736,8.383-.831,16.845-.931,25.23a31.342,31.342,0,0,0-2.252,3.788c-3.351,6.757-3.522,13.594-4.871,20.834a.475.475,0,0,0,.14.439,26.917,26.917,0,0,0-1.89,4.047c-.649,1.873-1.315,7.382-3.411,8.241-.17.07-.048.351.127.291,1.685-.579,2.127-3.064,2.672-4.486,1.363-3.554,3.118-6.719,4.761-10.131.276-.574-.592-1.08-.89-.5-.028.054-.058.107-.086.16,1.093-5.8,1.627-11.54,4.071-17.069A33.713,33.713,0,0,1,20.659,250c-.331,8.527-2.392,16.7-4.908,24.781-.33.9-.646,1.813-.915,2.732a.129.129,0,0,0,.013.112c-2.8,8.687-5.919,17.321-7.712,26.255C5.112,313.96,5.3,324.207,5.555,334.421c.021.871.015,1.742.014,2.613a26.064,26.064,0,0,1-3.556,4.095.438.438,0,0,0-.542.056,7.959,7.959,0,0,1-3.976,2.362,6.262,6.262,0,0,0-2.8,1.282c-.079.07.026.207.116.146,1.266-.861,2.685-.655,4.065-1.025-.465.4-.928.8-1.379,1.188-1.4,1.208-2.984,2.179-4.391,3.369-1.494,1.264-2.063,2.662-3.157,4.24-.09.13.126.295.226.169a22.577,22.577,0,0,1,5.176-5.153c1.472-.991,2.865-1.989,4.25-3.1a44.116,44.116,0,0,0,5.942-5.3c-.038,1.8-.116,3.6-.207,5.4a.6.6,0,0,0-.056.066c-2.433,4.35-6.5,6.669-8.061,11.616-.941,2.987-1.437,6.095-2.081,9.149-.574,2.719-1.59,5.394-2.027,8.114-.037.231.323.336.371.1a157.273,157.273,0,0,1,4.28-15.568,17.317,17.317,0,0,1,4.742-7.988,36.7,36.7,0,0,0,2.679-2.667q-.134,2.327-.271,4.655a19,19,0,0,0-3.462,6.193c-.421.635-.887,1.24-1.342,1.861-.69.94-1.176,1.995-1.961,2.87a.182.182,0,0,0,.262.253,20.015,20.015,0,0,0,2.046-2.488c.226-.288.456-.571.684-.854-.019.169-.051.331-.062.506-.3,4.511-1.152,8.97-1.451,13.463-.009.147.217.141.234,0,.432-3.522,1.6-6.93,1.932-10.477.234-2.47.232-4.577,1.521-6.813A25.117,25.117,0,0,1,4.8,354.514c-.172,3.394-.291,6.79-.217,10.189a.44.44,0,0,0,.879,0c.081-3.908.267-7.817.475-11.724.173-.232.347-.463.517-.7.3-.414-.03-.806-.433-.879q.148-2.746.3-5.491c.067-.128.138-.25.2-.385a.7.7,0,0,0-.141-.8c.057-1.108.117-2.216.167-3.323.052-1.162.089-2.328.12-3.495a11.663,11.663,0,0,0,.991-1.736.693.693,0,0,0-.934-.9c.107-6.14.08-12.315.628-18.407A126.189,126.189,0,0,1,12.267,291.2c1.052-3.432,2.271-6.814,3.482-10.2.319,3.2,1.142,7.128,1.221,10.784a.423.423,0,0,0-.071.189c-.58,5.191-3.472,9.5-4.477,14.593a31.162,31.162,0,0,0,.408,12.032c.024.108.215.086.2-.027A35.555,35.555,0,0,1,14.359,303.7c.716-2.091,1.528-4.008,2.184-5.967a12.945,12.945,0,0,0,.988-3.869,18.453,18.453,0,0,0,.22-1.88.348.348,0,0,0-.094-.273c.053-4.328-.93-9.014-.975-12.46a.467.467,0,0,0-.174-.371c1.362-3.84,2.668-7.7,3.662-11.65.154,4.747,1.335,9.509,1.833,14.24a44.546,44.546,0,0,1,.172,6.455,23.613,23.613,0,0,1-4.684,9.6.176.176,0,0,0,.253.244,19.615,19.615,0,0,0,4.176-6.217,103.426,103.426,0,0,1-1.806,10.774c-.34.554-.692,1.1-1.048,1.655-.646,1.006-1.952,3.283-3.278,3.6-.335.082-.193.568.143.5,1.229-.252,2.469-1.9,3.178-2.82q.261-.335.518-.675c-.241,1.1-.485,2.2-.725,3.292-.923,4.214-3.4,7.909-4.731,12.006a64.145,64.145,0,0,0-2.506,11.329c-.6,4.57.069,8.739-.082,13.272-.179,5.382-2.159,10.66-3.466,15.867a.41.41,0,0,0,.406.51,38.77,38.77,0,0,1-2.509,4.837,31.867,31.867,0,0,0-3.812,8.3.185.185,0,0,0,.358.095c1.435-4.414,4.617-7.7,6.833-11.687a18.26,18.26,0,0,0,2.112-9.51c.386-1.234.732-2.473,1.018-3.716a25.036,25.036,0,0,1,.1,5.048c-.34,3.427-1.407,6.344-2.166,9.6a.131.131,0,0,0,.252.067c.947-3.243,2.186-6.128,2.711-9.56.487-3.182-.008-6.248-.2-9.433a.564.564,0,0,0-.058-.208c.14-3.467-.446-6.919-.071-10.4a69.538,69.538,0,0,1,2.893-13.926c1.4-4.3,3.9-8.127,4.844-12.577,1.632-7.684,3.721-15.553,3.229-23.475a58.986,58.986,0,0,0-1.718-11.173,50.3,50.3,0,0,1-1.252-10.028,48.354,48.354,0,0,0,2.447-9.269c.231-1.531.428-3.077.611-4.63a10.569,10.569,0,0,0,.392-3.666c.057-.581.1-1.165.149-1.748.128-.218.258-.451.389-.685.459.818,1.1,1.551,1.581,2.357,2.636,4.438,2.155,8.027-.107,12.477-2.666,5.244-1.024,9.141.355,14.612.121.483.874.277.768-.2-.819-3.731-2.488-7.717-1.117-11.5,1.056-2.915,3.22-4.912,3.482-8.127a11.594,11.594,0,0,0-1.337-6.245c-.833-1.481-2.349-2.586-3.268-4.01,1.03-1.886,2.151-4.01,3.418-4.94a.188.188,0,0,0-.194-.321,4.913,4.913,0,0,0-1.072.853,40.3,40.3,0,0,0,2.558-11.61c.6-7.766-1.932-15.352-1.457-23.04a.7.7,0,0,0-.766-.751c.288-1.332.616-2.655,1-3.964a60.636,60.636,0,0,1,3.791-10.128c.107-.163.225-.317.334-.478.217,2.765-.269,5.415.743,8.132a17.762,17.762,0,0,0,3.635,5.891c.155.157.383-.073.242-.235a16.235,16.235,0,0,1-3.606-8.017c-.279-2.347.3-4.634-.12-7,0-.011-.009-.016-.011-.028a25.7,25.7,0,0,1,8.691-7.477c-.078,2.493-1.2,4.839-1.178,7.355a.207.207,0,0,0,.413,0c.035-2.722,1.593-5.127,1.731-7.844.513-.239,1.035-.467,1.576-.674,4.723-1.812,9.509-2.967,14.491-1.384,5.3,1.685,8.483,5.41,10.788,10.131,2.326,4.765,3.2,9.7,3.861,14.89.464,3.629.947,7.411,1.267,11.1-.018.421.052.841.034,1.261-.028.076.035.155.035.25v.623c0,.219-.373.439-.518.666a.756.756,0,0,0,.408,1.132c-.029.033-.078.07-.081.125l-.02.186c-.009.191.193.24.326.166.036-.068.077-.133.114-.2,0-.075.005-.154.009-.227a.816.816,0,0,0,.146-.05,27.417,27.417,0,0,1,2.1-3.171,1.819,1.819,0,0,1,.443-.415l.009-.028a7.008,7.008,0,0,0,.78-3.912,23.292,23.292,0,0,0-1.023-7.088c4.149-.15,9.119-2.109,12.95-4.8,7.738-2.965,9-13.629,4.882-20.178-.212-.339-.439-.667-.664-1,1.963.366,4.185.53,5.943.831,2.231.382,4.725.445,7.065.918a13.589,13.589,0,0,1,.453,1.582,12.228,12.228,0,0,1,.794,3.432c0,.215.328.211.344,0a16.842,16.842,0,0,0-.6-3.89c-.052-.32-.1-.635-.173-.939.425.107.844.228,1.253.374.754.377,1.507.77,2.254,1.183a4.445,4.445,0,0,0,1.618.933c.931.562,1.841,1.161,2.717,1.8.175.8.277,1.613.389,2.434.125.919.507,2.065-.07,2.887-.045.063.054.132.108.08a2.725,2.725,0,0,0,.559-2.286c-.037-.843-.082-1.676-.181-2.5a21.574,21.574,0,0,1,6,6.775,33.353,33.353,0,0,1,3.187,9.944,20.416,20.416,0,0,1-1.132,2.527c-.673,1.278-1.651,3.612-3,4.305-.207.107-.025.385.181.3,1.483-.63,2.7-2.954,3.474-4.233.261-.431.511-.871.745-1.319.417,2.61.727,5.245,1.151,7.837.166,1.014.337,2.027.507,3.04-.977,2.17-1.659,4.872-3.986,6.014-.158.078-.019.3.139.23,2.108-.954,3.09-3.007,4.061-4.953.332,1.985.658,3.97.948,5.958.046,5.036-.12,10.1-.167,15.161a.46.46,0,0,0-.657.169,14.905,14.905,0,0,0-1.563,5.525c-.149,3.029.284,5.563-1.746,8.176-.177.229.214.517.41.305A8.2,8.2,0,0,0,128.837,244c.134-1.356-.049-2.727.1-4.083a16.014,16.014,0,0,1,1.126-3.985,115.886,115.886,0,0,0,.812,15.857c-2.123,3-3.006,5.385-2,9.111,1.4,5.209,3.623,9.435,3.747,14.945a.159.159,0,0,0,.316,0,23.838,23.838,0,0,0-1.3-9.953,53.2,53.2,0,0,1-1.707-5.273,8.908,8.908,0,0,1,1.21-7.025c.071.444.138.887.217,1.33q.451,2.514,1.04,4.951a55.026,55.026,0,0,0,2.329,9.369,28.753,28.753,0,0,0,2.321,4.991c-.111.509-.232,1.016-.359,1.523-.465.671-.878,1.376-1.359,2.036a10.266,10.266,0,0,1-2.556,2.165A8.5,8.5,0,0,0,130,283.41c-.085.183.188.346.285.161a7.479,7.479,0,0,1,1.789-2.366c.807-.681,1.8-1.055,2.643-1.673a6.99,6.99,0,0,0,1.345-1.354c-.2.786-.407,1.574-.583,2.366a30.638,30.638,0,0,0-2.631,4.817,20.744,20.744,0,0,0-1.337,7.468c0,.12.184.118.193,0a18.207,18.207,0,0,1,2.565-8.366c.244-.39.485-.763.723-1.131a53.578,53.578,0,0,0-.138,8.266,57.9,57.9,0,0,0,1.471,10.891c.125,1.558.212,2.617.214,2.617-.2.045-.162.375.049.352l.259-.029a.225.225,0,0,0,.176-.113c.667,2.512,1.445,5,2.292,7.48a150.69,150.69,0,0,1,5.65,21.677c1.067,5.772,1.163,11.606,2.18,17.349a.5.5,0,0,0-.451.548c.363,2.609.2,5.264.647,7.86.413,2.374,1.786,4.646,2,7.019a.138.138,0,0,0,.275,0c.059-2.014-.969-4.124-1.312-6.11a48.214,48.214,0,0,1-.439-5.919c.111.434.228.868.355,1.3a.089.089,0,0,0,.172-.046l-.006-.029a34.767,34.767,0,0,0,1.53,4.852c1.738,4.259,4.057,8.273,5.882,12.495.063.144.3.093.252-.067-1.4-4.341-3.731-8.367-5.3-12.65-1.658-4.522-2-9.4-2.992-14.082a.551.551,0,0,0-.678-.43c-.3-3.865-.5-7.735-1.144-11.582a156.112,156.112,0,0,0-4.71-20.34c-2.185-7.108-4.37-14.043-4.668-21.528q-.021-.509-.035-1.023c.015-.509.028-1.012.032-1.491,0-.8.049-1.6.11-2.388.267.491.542.98.822,1.485,1.525,2.749,1.723,5.974,2.012,9.034a16.6,16.6,0,0,0,.929,4.446c.5,1.378,1.985,4.049,1.813,5.5-.027.22.371.274.4.052.234-1.529-.537-2.6-1.072-4.089a25.025,25.025,0,0,1-1.37-7.217,27.543,27.543,0,0,0-.828-6.217,40.268,40.268,0,0,0-2.485-5.1,42.764,42.764,0,0,1,2.178-8.636c.255.387.509.776.769,1.161.93,1.823,1.856,3.648,2.734,5.493-3.988,5.747-1.072,14.092,1.309,19.8,1.647,3.949,3.616,7.612,4.441,11.837a51.333,51.333,0,0,1,.62,6.375c-.01.175-.026.351-.035.527-.005.089,0,.177-.005.266-1.032,4.415.1,9.5.709,13.939a33.243,33.243,0,0,0,1.819,11.217c.151.874.291,1.752.426,2.629a.426.426,0,0,0-.229.533c.8,2.614.751,5.259,1.376,7.893a21.04,21.04,0,0,0,2.721,5.673.232.232,0,0,0,.4-.228c-1.181-2.327-2.31-4.315-2.591-6.945a33.357,33.357,0,0,0-.868-6.436c0-.022,0-.045,0-.067a24.654,24.654,0,0,0,1.933,3.4,24.934,24.934,0,0,1,4.452,10.732c.536,3,.333,6.726,2,9.419a.171.171,0,0,0,.3-.168c-1.675-3-1.377-7.68-1.941-11.055a19.273,19.273,0,0,0-2.516-7.5,37.186,37.186,0,0,1-3.94-8.211c.163.169.323.34.508.51,2.382,2.2,4.928,4.22,6.408,7.135,1.775,3.5,2.251,7.582,3.5,11.276.812,2.4,1.42,5.71,3.058,7.693.049.058.149-.017.107-.081-1.864-2.854-2.568-7.581-3.378-10.88-.7-2.856-1.1-5.767-2.3-8.484a14.3,14.3,0,0,0-3.571-4.824c-2.386-2.426-4.31-4.56-5.394-7.675a.476.476,0,0,0,.268-.478c-.052-.536-.132-1.066-.214-1.6-.013-.156-.024-.316-.035-.474a.467.467,0,0,0,.174-.36c0-.475.009-.95.015-1.425a23.225,23.225,0,0,0,5.534,6.544c.064.049.128.094.192.143a.5.5,0,0,0,.2.527,4.671,4.671,0,0,0,1.549.734,40.354,40.354,0,0,1,5.645,4.271c1.311,1.282,4.206,3.62,4.677,5.361.028.106.215.088.2-.026C169.781,352.75,164.92,348.571,162.761,346.727ZM24.2,218.032c-.015.222-.029.444-.045.666l-.009,0q.03-1.2.037-2.39c.114-.865.227-1.733.358-2.619C24.419,215.12,24.309,216.567,24.2,218.032Zm4.8,5.25a39.426,39.426,0,0,1-2.916,16.762c-.415.658-.813,1.316-1.243,1.9l-.009.005c.432-5.418.694-10.868.913-16.21a180.143,180.143,0,0,1,1.31-18.287C27.4,212.716,28.864,218.032,29,223.282Zm25.247-49.506a16.58,16.58,0,0,0-4.473.8.27.27,0,0,0-.137.1c-.893.181-1.783.4-2.655.666a.748.748,0,0,0-.027-.1,26.42,26.42,0,0,1,7.414-1.749A.967.967,0,0,0,54.251,173.775ZM95.27,189.61c-.942,3.354-3.586,5.01-6.383,6.942a28.433,28.433,0,0,1-7.75,3.816c-.761.244-2.3.386-3.389.789-.276-1.386-.579-2.765-.892-4.131-.152-1.108-.334-2.219-.529-3.333.064-.368.138-.733.226-1.1a.708.708,0,0,0,.1-.133,58.031,58.031,0,0,1,4-7.383.584.584,0,0,0,0-.693,26.6,26.6,0,0,1,3.01-3.222,35.6,35.6,0,0,1,5.436-3.037,34.024,34.024,0,0,1,3.678-1.384c.512,1.357,1.015,2.716,1.487,4.086C95.27,183.777,96.133,186.536,95.27,189.61Zm54.385,123.642c-.074,1.016-.161,2.034-.249,3.051a29.332,29.332,0,0,0-2.136-7.722c-3.007-6.714-7.705-15.792-4.067-23.1a64.77,64.77,0,0,1,3.079,7.85A96.1,96.1,0,0,1,149.74,308.3C149.742,309.942,149.707,311.594,149.655,313.251Zm.752,11.052a.708.708,0,0,0-.2.016c.007-.275.019-.549.033-.823.074-.745.15-1.489.209-2.24C150.442,322.27,150.425,323.285,150.408,324.3Z" transform="translate(10.071 -88.969)"/><path class="d" d="M85.233,234.481c-1.4-2.747-6.044-1.453-8.98-2.3a5.806,5.806,0,0,1-1.741-1.78,5.151,5.151,0,0,1-.655-1.944c.593-2.291,3.169-4.529,4.274-6.272.267-.42-.394-.777-.676-.382a46.835,46.835,0,0,0-3.566,4.748c.3-2.16,1.293-4.357,1.133-6.538a.454.454,0,0,0-.906,0c-.32,3.965-3.614,7.621-.794,11.533a6.657,6.657,0,0,0,4.108,2.614l-.181.044a16.863,16.863,0,0,0-3.668,1.511,15.431,15.431,0,0,1-6.3,1.633,7.029,7.029,0,0,1-2.593-2.266c-.306-.445-1.037-.044-.747.421a6.652,6.652,0,0,0,2.4,2.227.721.721,0,0,0,.607,1.135,17.042,17.042,0,0,0,3.956.048,5.191,5.191,0,0,0-.622,1.4,4.146,4.146,0,0,0-.094,1.768c.024.345.031.662.024.969-.123.1-.245.2-.364.3a12.1,12.1,0,0,1-2.523,1.783c-.476.241-.058.9.416.687a7.549,7.549,0,0,0,2.267-1.716l.129-.131a9.408,9.408,0,0,1-.5,1.926c-.208.574.724.95,1.016.414a11.176,11.176,0,0,0,.986-3.52,2.277,2.277,0,0,0,.442-.285c.179-.154-.056-.453-.258-.322-.026.016-.056.028-.083.043a6.089,6.089,0,0,1,1.614-3.566,9.545,9.545,0,0,1,4.312-2.155c.613-.046,1.219-.084,1.792-.149a37.035,37.035,0,0,1,4.112-.543A.794.794,0,0,0,84,235.7c.07.025.14.043.208.07C85.012,236.08,85.543,235.087,85.233,234.481Z" transform="translate(-0.29 -107.272)"/><path class="d" d="M131.75,384.243a39.744,39.744,0,0,1-5.411-.642c-2.019-.424-3.439-1.74-4.982-2.969-2.072-3.381-3.912-6.8-4.38-7.41a17.4,17.4,0,0,0-3.938-3.7c-.073-1.138-.151-2.271-.245-3.395-.375-4.449-1.532-9.112-4.3-12.771a17.911,17.911,0,0,0-3.994-3.685c-1.819-1.319-3.559-1.637-5.4-2.585-.529-1.272-1.084-2.521-1.7-3.711a65.325,65.325,0,0,0-4.96-7.448c1.484.345,2.961.27,4.476.67,2.169.573,3.86,1.844,5.828,2.862,2.1,1.086,4.356,2.18,6.778,1.848.175-.024.136-.315-.041-.3-3.677.306-6.816-2.548-9.726-4.289-2.591-1.55-4.894-1.19-7.708-2.019a.518.518,0,0,0-.422.041c-.071-.107-.146-.213-.217-.321a16.238,16.238,0,0,0-3.329-3.8c0-.046,0-.091,0-.136v-.008c.5-3.433.177-7.076.379-10.546.324-5.6.644-11.2.728-16.805a8.971,8.971,0,0,0,.637.721,12.166,12.166,0,0,0,1.863,1.349,6.983,6.983,0,0,1,3.157,5.4c.03.344.567.355.563,0-.015-1.779-.623-4.4-2-5.688-.807-.752-1.875-1.116-2.644-1.964a9.75,9.75,0,0,1-1.552-2.43c0-.408.013-.818.01-1.226-.056-7.465-.347-14.911-.36-22.377a10.124,10.124,0,0,1,1.907,1.351c1.137,1.04,1.445,2.448,2.4,3.6a15.211,15.211,0,0,0,4.773,4.028c.267.115.5-.246.236-.389a12.656,12.656,0,0,1-3.3-3.237c-.972-1.184-1.166-2.65-2.02-3.88a10.261,10.261,0,0,0-4.011-3.09c-.016-1.869-.089-3.734-.18-5.6.058.06.1.125.166.182,1.162,1.1,2.777,1.683,3.867,2.847,1.308,1.4,1.806,3.767,4.188,3.574.295-.023.3-.465,0-.451-2.3.107-2.636-2.782-3.773-4.177-1.544-1.9-3.674-2.72-4.575-5.131a.717.717,0,0,0-.041-.066c-.165-2.76-.357-5.518-.5-8.28.023-.913.044-1.824.068-2.739a.677.677,0,0,0-.206-.5c-.009-.272-.008-.543-.016-.814-.138-.082-.279-.159-.408-.251a2.416,2.416,0,0,1-.571-.465c-.389-.351-.751-.741-1.118-1.141a13.937,13.937,0,0,1-1.666-2.2c-.018.555-.042,1.109-.049,1.664a9.85,9.85,0,0,0,0,1.731c.009,3.112.134,6.225.2,9.333a.592.592,0,0,0-.206.215c-1.108,1.951-3.17,3.243-4.18,5.275a5.6,5.6,0,0,0-.519,2.674c0,.979.484,2.773-.131,3.621-.083.116.111.263.206.152.948-1.116.258-2.829.472-4.151.461-2.849,2.746-3.9,4.391-5.75.021,2.086,0,4.169-.123,6.244-.369,6.222-.293,12.4-.3,18.624a.477.477,0,0,0-.624.232c-2.163,4.463-4.841,8.168-4.66,13.291.008.2.114.206.114,0,.014-4.906,2.981-8.176,4.739-12.157v.14c0,7.828.135,15.658.163,23.488.018,4.84-.479,9.821-.294,14.7-.087.224-.119.449-.2.672a24.945,24.945,0,0,0-3.472,4.891c-3.209.389-6.173-.046-8.974,1.942-3.581,2.541-5.984,6.958-9.03,10.06-.157.162.089.4.253.244,2.685-2.54,4.884-5.387,7.419-8.041,2.813-2.943,6.042-2.889,9.689-3.028-.411.777-.807,1.566-1.2,2.359a48.455,48.455,0,0,0-4.953,8.686,37.613,37.613,0,0,0-6.487,3.393c-1.857,1.281-4.342,4.538-6.9,4a.153.153,0,0,0-.084.294c1.952.529,2.98-.384,4.426-1.564a32.371,32.371,0,0,1,8.447-4.753q-.638,1.539-1.2,3.114a33.137,33.137,0,0,0-5.293,5.7,39.188,39.188,0,0,0-4.886,9.467A17.934,17.934,0,0,0,56.616,371c-2.659,3.652-5.074,15.075-11.014,15.454-.341.022-.346.536,0,.518,3.781-.2,5.811-4.119,7.62-6.885,1.952-2.983,2.941-6.483,5.373-9.16a16.828,16.828,0,0,1,1.63-1.564c-.484,2.6-.635,5.25-.94,7.861a50.883,50.883,0,0,1-4.4,16.063c-.233.5.526.941.771.435,3.851-7.941,4.013-15.859,5.752-24.284.082-.395.187-.786.291-1.176a16.658,16.658,0,0,1,5.251-2.231c-.467,2.314-.845,4.655-1.154,7.006-3.455,2.956-4.213,6.5-4.835,11.016a55.239,55.239,0,0,1-1.907,9.02,9.3,9.3,0,0,0-1.758.608,18.277,18.277,0,0,0-4.842,3.612c-.23.225.121.562.359.346a14.271,14.271,0,0,1,5.931-3.627,29.226,29.226,0,0,1-4.25,8.157c-.145.193.189.446.346.257a31.043,31.043,0,0,0,5.006-8.6c.038,0,.074-.014.113-.017a9.4,9.4,0,0,0,3.608-.683c-.544.8-1.079,1.6-1.541,2.39a43.158,43.158,0,0,0-2.979,6.4c-.037.1-.062.193-.1.288a.638.638,0,0,0-.463.307c-.447.715-2.213,1.546-2.865,2.188A6.554,6.554,0,0,0,53.6,407.98c-.458,1.783-.327,3.648-.785,5.434-.356,1.386-1.2,2.709-1.224,4.143,0,.209.308.2.33,0,.139-1.255,1-2.345,1.414-3.523a36.743,36.743,0,0,0,.94-4.929,6.78,6.78,0,0,1,3.555-4.6c.166-.095.312-.169.451-.238-1.321,4.7-1.329,9.4-1.329,14.381,0,6.231-3.4,11.851-3.04,18.026.377,6.512,3.855,12.223,4.253,18.8.025.406.666.413.66,0-.1-6.379-3.45-11.825-3.846-18.1-.406-6.426,3.354-12.241,3.37-18.727.015-6.453.233-12.249,2.714-18.333a67.04,67.04,0,0,1,3.894-7.037c.21,5.375.57,10.742.971,16.1a14.354,14.354,0,0,0-2.384,7.89.227.227,0,0,0,.453,0,15.238,15.238,0,0,1,2.051-6.3q.377,4.937.765,9.873a19.848,19.848,0,0,0-4.962,6.322c-2.082,4.113-1.639,8.951-1.322,13.364.9,12.521,4.827,24.127-.517,36.314-.138.314.322.595.486.275,4.1-8.008,3.814-17.065,2.525-25.683a116.057,116.057,0,0,1-1.526-15.993c-.034-3.268.384-6.538,2.243-9.353a29.118,29.118,0,0,1,3.159-4.145c1.086,14.172,1.939,28.338.683,42.585a.673.673,0,0,0,.311.67c-.96,3.661-1.928,7.333-2.822,11.008-.32,1.313-.674,2.609-1.042,3.9q-.588,1.584-1.194,3.149c-1.528,3.952-3.277,7.986-4.706,12.1-1.807,1.691-3.953,2.868-5.326,5.066a20.321,20.321,0,0,0-2.565,8.82c-.006.069.1.066.11,0,.422-3.348,1.577-7.265,4.1-9.726a14.481,14.481,0,0,1,2.962-1.973,43.165,43.165,0,0,0-2.07,10.426,55.016,55.016,0,0,0-1.578,13.413C53.833,540.368,60.8,558.439,65.4,576.7c.135.537.91.294.834-.222a190.259,190.259,0,0,0-5.121-22.218c3.065,5.648,6.217,11.4,8.1,17.352a22.489,22.489,0,0,1,.51,11.949,15.224,15.224,0,0,1-2.549,4.964c-4.056,3.238-8.735,5.55-12.654,8.928-3.347,2.886-4.079,5.833-5.469,9.679-.029.083.1.113.132.035.765-1.807,1.075-3.607,2.179-5.317a20.291,20.291,0,0,1,6.729-5.945c1.8-1.106,3.52-2.065,5.154-3.126-.925.888-1.869,1.771-2.783,2.689-.1.1.058.261.165.159,1.251-1.188,2.506-2.3,3.718-3.432-1.642,3.018-2.544,6.165-4.3,9.236-1.848,3.232-3.527,6.2-3.665,9.963,0,.078.114.075.123,0,.562-4.72,3.519-7.76,5.6-11.81.965-1.882,1.767-3.845,2.6-5.8.568,6.5-4.005,12.908-1.1,19.112.086.182.418.051.34-.138-1.8-4.327.537-8.316,1.3-12.655.467-2.66.961-5.67.36-8.335.169-.368.33-.738.509-1.1a21.1,21.1,0,0,0,2.036-1.924.364.364,0,0,0-.067-.573,17.023,17.023,0,0,0,1.847-3.139c1.6-3.578,1.428-7.464,1.022-11.263-.455-4.251-2.719-8.349-4.487-12.195a107.624,107.624,0,0,0-6.655-12.19,116.711,116.711,0,0,1-4.046-22.109c-.513-8-.242-16.262,2.735-23.828.539-1.369,1.1-2.728,1.659-4.084-.833,8.18-1.853,16.26-.691,24.6a150.9,150.9,0,0,0,2.92,15.656q1.116,4.479,2.221,8.959c.626,2.552,1.84,5.081,2.315,7.651.015.085.144.047.132-.035-.335-2.336-1.408-4.634-1.946-6.959-.635-2.74-1.2-5.493-1.849-8.231a141.419,141.419,0,0,1-3.071-18.632c-.945-9.56,1.408-18.744,2.12-28.151,1.794-4.264,3.559-8.535,5.033-12.939.215-.642.412-1.287.611-1.932a63.113,63.113,0,0,0,2.395,10.86c.146.5.27,1,.4,1.5a.658.658,0,0,0-.242.22,18.22,18.22,0,0,0-2.586,6.6c-.441,2.671.207,4.937.377,7.6a.159.159,0,0,0,.316,0c0-2.515-.613-4.9.018-7.406a18.268,18.268,0,0,1,2.508-5.387A57.557,57.557,0,0,1,72.428,507.9a.669.669,0,0,0-.168.16,20.436,20.436,0,0,0-3.911,8.7c-.858,4.48-1.635,9.146-3.6,13.313-.119.253.258.476.391.221a45.173,45.173,0,0,0,3.4-10.074c.983-3.831,1.777-6.758,3.791-9.886-.078,1.42-.187,2.859-.319,4.33-.722,7.987-2.136,15.918-2.882,23.911s.073,15.649,1.023,23.585c.009.083.145.086.137,0-.736-7.971-1.345-15.6-.379-23.585.933-7.719,2.5-15.362,3.323-23.089.78-7.306,1.4-14.178-.256-21.4-.767-3.354-1.967-6.582-2.758-9.92a37.073,37.073,0,0,1-.779-10.244,101.384,101.384,0,0,0,2.323-14.639,11.448,11.448,0,0,0,.383-6.078,229.176,229.176,0,0,0-1.073-28.808,43.987,43.987,0,0,1,5.686,18.67c.007.087.009.175.015.263a.54.54,0,0,0-.083.267,153.82,153.82,0,0,1-2.2,21.8c-1.175,6.405-3.059,12.411-2.175,18.948.04.3.528.309.494,0C72,476.926,74.747,470,76.2,462.809a86.093,86.093,0,0,0,1.464-10.232c.915-10.841-.45-22.044-6.576-30.821a.675.675,0,0,0-.278-.226c-.705-7.729-1.513-15.454-2.04-23.121,0-.175-.007-.352-.008-.528,2.107,3.62,3.72,6.107,3.888,10.684a46.057,46.057,0,0,0,1.767,10.175c.064.242.433.138.384-.1a48.7,48.7,0,0,1-1.107-7.354c-.1-2.1.293-4.4-.033-6.476-.542-3.461-2.5-5.673-4.373-8.495a.591.591,0,0,0-.551-.275c-.07-3.167-.242-6.338-.173-9.5.032-1.451.1-2.914.193-4.38a39.468,39.468,0,0,0,3.862,8.014c3.565,5.923,4.869,12.219,4.98,19.026.148,9.032-3.249,21.923,3.036,29.706.124.153.4-.05.281-.209-3.674-4.911-3.183-12.063-2.775-17.8.384-5.391.932-10.876.454-16.279a36.263,36.263,0,0,0-3.181-12.474c-1.157-2.4-2.774-4.564-3.981-6.937a26.716,26.716,0,0,1-2.264-7.883q.268-2.555.652-5.109c.165.538.347,1.087.543,1.661a92.625,92.625,0,0,1,2.075,9.187c.573,2.515,2.015,7.211,5.393,7.3a.245.245,0,0,0,0-.491c-4.012-.221-4.728-7.3-5.2-10.631.844.83,1.908,1.426,2.794,2.249.748.7,1.246,1.888,2.409,1.981a.146.146,0,0,0,.04-.286c-1-.262-1.559-1.869-2.255-2.574a24.823,24.823,0,0,1-2.9-2.92.525.525,0,0,0-.395-.228c-.6-3.024-1.521-6.014-1.875-9.054a116.4,116.4,0,0,1,3.025-12.688,37.308,37.308,0,0,1,1.467-3.989c1.321,4.56,1.163,8.682.486,13.466a48.62,48.62,0,0,0-.045,11.336c.01.126.2.13.206,0a114.67,114.67,0,0,1,1.365-15.237,23.108,23.108,0,0,0-1.1-11.256.679.679,0,0,0-.085-.137c1.69-3.513,3.776-6.833,5.807-10.175a5.636,5.636,0,0,0,.439,1.288c1.138,2.342,3.877,4.881,2.077,7.681-.147.229.211.419.367.207a5.021,5.021,0,0,0,.415-4.508c-.705-2.474-2.377-3.893-2.274-6.368.785-1.317,1.549-2.643,2.267-3.992a.964.964,0,0,0,.365.215c1.987,3.448,5.117,6.552,7.566,9.669a9.193,9.193,0,0,0-.4,2.2c-.03,1.022.547,1.77.746,2.738.047.232.456.183.432-.056a15,15,0,0,1-.482-2.636,6.517,6.517,0,0,1,.305-1.458c.052.07.11.14.162.211a34.674,34.674,0,0,1,3.412,5.863c-1.152,2.539-2.22,4.128-1.987,7.306.331,4.529,2.985,10.432.028,14.711-.073.1.1.237.183.137,1.923-2.3,1.707-5.741,1.563-8.526-.132-2.562-.866-5.139-.66-7.669a10.071,10.071,0,0,1,1.613-4.272,56.922,56.922,0,0,1,2.385,6.507c.621,4.191.876,8.4,1.756,12.614v.006c0,.21.01.419.015.628-2.188,3.68-7.881,4.924-7.609,9.97.018.33.537.335.536,0-.019-2.926,2.312-4.708,4.618-6.135a10.227,10.227,0,0,0,2.534-2.194c.078,1.113.193,2.225.3,3.336.089.892.154,1.781.207,2.667a47.034,47.034,0,0,1-3.275,4.245,19.886,19.886,0,0,0-2.425,2.656,6.788,6.788,0,0,0-1.165,5.356c.029.113.231.092.216-.028-.359-2.819,1.452-5,3.421-6.821a26.044,26.044,0,0,0,3.3-3.8,120.9,120.9,0,0,1-.494,14.5.63.63,0,0,0-.816.3c-1.445,2.676-3.852,4.855-4.525,7.871-.722,3.241-.675,7-.92,10.311-.021.27.39.255.426,0,.426-3.09.62-7.074,1.53-10.035.769-2.5,2.735-4.255,4.132-6.393-.238,2.741-.494,5.49-.7,8.263-.225,2.99-.512,5.987-.753,8.987-.181,1.466-.382,2.931-.556,4.4a.884.884,0,0,0-.6.723c-.449,3.63-3.39,7.383-4.435,11-1.092,3.78-.98,8.036-.878,11.925.231,8.76,2.5,17.152,3.738,25.763.012.085.144.059.148-.019a25.072,25.072,0,0,0-.422-5.235,4.293,4.293,0,0,1,.426,1.228,31.924,31.924,0,0,1,.475,5.459c.236,3.475.443,6.95.532,10.432.012.469.77.47.756,0-.114-3.719-.389-7.42-.721-11.127a56.9,56.9,0,0,0-1.2-6.737c-.033-.157-.212-.117-.212.037v.157c-.879-1.833-.79-3.661-1.034-5.462a104.546,104.546,0,0,1-1.273-15.26c.053-4.513.364-8.93,2.077-13.16a38.737,38.737,0,0,1,1.956-3.834,143.129,143.129,0,0,0-.884,19.456c-.057.68-.126,1.359-.177,2.04a64.284,64.284,0,0,0,.4,13.182c0,.018,0,.035,0,.052s.007.022.008.035a68.664,68.664,0,0,0,2.88,12.423.766.766,0,0,0-.178.558c.471,8.038-1.945,15.877-3.933,23.575a52.92,52.92,0,0,0-1.291,17.9c.616,7.173,2.075,14.149,3.2,21.247a133.727,133.727,0,0,1,1.293,23.3c0,.224.341.218.357,0a116.964,116.964,0,0,0-.471-23.3c-.844-7.1-2.1-14.1-2.587-21.247a57.559,57.559,0,0,1,2.257-20.261c1.494-5.159,3.051-11.13,3.2-16.771.524,1.268,1.071,2.528,1.67,3.767.636,1.9,1.316,3.794,2.057,5.7.17.439.353.875.531,1.313,1.447,8.562,1.135,17.284.948,25.945-.175,8.157-2.631,16.1-2.747,24.2,0,.292.457.29.467,0,.156-4.551,1.488-9.1,2.237-13.593a98.3,98.3,0,0,0,1.372-12.113c.256-6.085.866-12.3.314-18.374a93.855,93.855,0,0,1,4.5,11.708,44.057,44.057,0,0,1,1.264,6.382c.04.726.068,1.451.087,2.176a.639.639,0,0,0-.259.4c-.919,4.682-.233,9.738-.4,14.507-.186,5.462-1.372,10.823-2.033,16.243-.045.37-.09.737-.136,1.106a.693.693,0,0,0-.439.289c-2.782,3.868-5.183,8.186-7.865,12.156-2.885,4.27-5.249,9.068-5.125,14.276.012.485.055.968.1,1.451a.523.523,0,0,0-.291.46c-.111,2.678-.852,5.314-.983,8a27.57,27.57,0,0,0,.762,6.2c.039.234.456.182.432-.056a27.556,27.556,0,0,1-.133-7.465c.2-1.269.537-2.534.784-3.8a29.62,29.62,0,0,0,4.128,9.319c.407.611.838,1.193,1.28,1.756a.477.477,0,0,0-.349.341c-.912,2.995.8,5.967,1.365,8.9.862,4.5-.164,8.925,1.317,13.36.072.218.419.129.357-.1-1.135-4.109-.22-7.938-.548-12.069-.251-3.171-2.1-6.458-1.488-9.643,1.093,1.315,2.235,2.551,3.323,3.808v0c0,2.815-.845,6.254.666,8.852,1.955,3.361,6.122,4.9,7.162,8.829.015.056.129.046.123-.015-.233-2.413-1.433-3.79-3.046-5.526-1.635-1.76-3.413-3.6-3.814-6.005a27.61,27.61,0,0,1,.027-4.777.609.609,0,0,0,.071.071c.109.076.212.144.32.218a17.373,17.373,0,0,1,3.406,6.416.069.069,0,0,0,.133-.035,16.564,16.564,0,0,0-2.278-5.526,19.883,19.883,0,0,1,4.559,3.888c1.093,1.305,2.433,2.473,3.411,3.855.854,1.208,1.468,2.591,2.286,3.834.127.194.439.021.32-.181-.758-1.289-1.253-2.734-2.057-3.987-1.1-1.709-2.656-3.176-3.867-4.815a15.934,15.934,0,0,0-5.679-4.581.546.546,0,0,0-.393-.058c-.1-.137-.2-.274-.309-.411a.509.509,0,0,0-.2-.267c-.66-.844-1.361-1.691-2.088-2.581-3.981-4.88-7.174-10.555-7.431-16.94-.254-6.317,3.2-11.593,6.8-16.567a75.362,75.362,0,0,0,4.887-7.917,92.056,92.056,0,0,1-2.531,13.3c-1.556,5.508-3.268,10.931-4.12,16.588-.025.164.227.241.265.07,2.412-10.932,6.864-21.169,8.318-32.327.715-5.483,2.176-10.932,2.538-16.457.19-2.9.048-5.835-.034-8.756.1-2.184.164-4.357.1-6.551.013-.154.017-.308.032-.461a.632.632,0,0,0-.056-.329,42.223,42.223,0,0,0-.421-4.46c-.106-.7-.236-1.384-.376-2.065a49.317,49.317,0,0,0-3.629-15.519c-1.8-4.242-4.108-8.223-6.14-12.337-1.036-2.99-2-6.008-2.819-9.1-.7-2.633-1.25-5.281-1.7-7.944.3.444.6.887.9,1.335.984,1.476,2.481,3.22,3.058,4.887.034.1.218.09.2-.027a12.485,12.485,0,0,0-1.98-4.291c-.807-1.379-1.683-2.716-2.527-4.072-.015-.095-.032-.189-.046-.284-.144-1.875-.257-3.753-.37-5.61a151.277,151.277,0,0,1,.43-20.21c.257-3.5.465-7,.652-10.509q.333-2.546.655-5.093a28.777,28.777,0,0,1,2.668,2.022,19.989,19.989,0,0,1,5.082,7.8c2.581,7.085,1.03,14.544-.228,21.73-.986,5.635-1.828,11.349-1.206,17.074a48.352,48.352,0,0,0,1.432,7.33.33.33,0,0,0-.334.432,32.682,32.682,0,0,0,1.974,5.041q.453,1.4.914,2.815a.11.11,0,0,0,.212-.057q-.115-.5-.234-1c2.058,3.867,4.605,7.56,6.73,11.29.084.147.358.046.289-.118-2.291-5.444-5.729-10.519-8.2-15.9a52.494,52.494,0,0,1-2.095-13.618c.083-7.327,2.286-14.315,3.292-21.526.776-5.557.729-11.052-1.6-16.286a24.329,24.329,0,0,0-3.071-5.08c-1.467-1.817-3.613-2.91-5.309-4.5.354-2.943.678-5.888.932-8.838.55-6.4.9-12.908.915-19.412,3.918,6.146.017,13.645,1.266,20.384,1.11,5.992,6.168,8.585,8.68,13.92,3.614,7.676,1.12,15.475-.847,23.216-1.226,4.83-1.465,9.552.847,14.037.034.066.153.02.126-.051-2.44-6.162-.574-11.926,1.077-17.915a26.39,26.39,0,0,0,1.015,3.009,21.68,21.68,0,0,1,1.159,11.193c-.04.248.347.359.4.106a22.534,22.534,0,0,0,.3-7.167c-.379-3.2-2.531-6.808-1.665-9.989a.546.546,0,0,0-.31-.656c1.378-5.9,1.874-11.337-.755-17.07-.255-.555-.539-1.084-.838-1.6-.285-2.532-.4-6.237-.388-6.555a31.527,31.527,0,0,0-.5-7.856c-.185-.862-.411-1.791-.678-2.746a15.2,15.2,0,0,1,3.2,2.65c1.556,1.786,1.829,3.748,2.534,5.868.929,2.794,3.265,5.262,4.012,8.044.046.169.348.14.324-.042-.209-1.568-1.2-2.963-1.82-4.414a32.826,32.826,0,0,1-1.292-3.641,3.808,3.808,0,0,0,.562.636,6.72,6.72,0,0,0,1.792.974,7.782,7.782,0,0,0,1.878.5,7.314,7.314,0,0,0,1.937-.12.159.159,0,1,0,0-.318A6.186,6.186,0,0,1,123.4,412.4c-.994-.675-1.508-1.742-2.531-2.342a.537.537,0,0,0-.2-.069c-.083-.3-.167-.6-.251-.911-.917-3.368-3.547-5.584-6.575-7.244a.585.585,0,0,0-.07-.022c-1.016-3.138-2.527-6.368-4.754-8.441a13.13,13.13,0,0,0-2.875-6.839.87.87,0,0,0-.831-.353c-.02-1.562-.053-3.123-.116-4.682q.018-3.472-.181-6.949a25.532,25.532,0,0,1,4.214,3.281,22.715,22.715,0,0,1,3.241,4.264c.876,8.2,2.685,16.894,6.741,23.7a.259.259,0,0,0,.451-.255c-3.453-6.385-4.864-13.353-5.594-20.438.31.64.617,1.293.931,1.976,1.156,2.51,2.441,4.961,3.667,7.438a.49.49,0,0,0,.021.09,8.563,8.563,0,0,0,.508.98c.44.91.869,1.825,1.274,2.75a15.524,15.524,0,0,0,4.081,6.071c.214.191.524-.1.321-.31a18.828,18.828,0,0,1-3.844-6.45,13.711,13.711,0,0,0,1.225.852c.819.51,1.759.736,2.58,1.23.706.425,1.057.835,1.93.781a.219.219,0,0,0,0-.438c-.776-.046-1.183-.658-1.76-1.066-.758-.537-1.583-.88-2.333-1.452a11.034,11.034,0,0,1-2.949-3.277c-.215-.551-.433-1.1-.664-1.629-1.352-3.123-2.637-6.286-4.029-9.388a20.851,20.851,0,0,0-1.329-2.457c-.224-3.152-.371-6.309-.551-9.431a25.572,25.572,0,0,1,5.1,6.2c.6.973,1.281,2.255,2.055,3.6a.624.624,0,0,0,.156.309l.066.07c1.778,3.023,4.046,6.222,7.014,6.772a.161.161,0,0,0,.15-.039l.321-.364a.108.108,0,0,0-.155-.15c-.853.672-2.544-1.2-4.348-3.8a6.489,6.489,0,0,0,1.8.684,11.763,11.763,0,0,0,2.615-.021c1.279-.019,2.531.087,3.816.022A.206.206,0,0,0,131.75,384.243Zm-66.868,6.9c-.036.057-.074.112-.11.169a.725.725,0,0,0-.911.012,8.115,8.115,0,0,1-3.646,1.476c.3-.888.577-1.785.794-2.691,1.276-5.354,1.128-10.654,4.52-14.9A114.974,114.974,0,0,0,64.881,391.147Zm4.078-33.226c-.635,2.139-1.172,4.326-1.655,6.532a.72.72,0,0,0-.312-.028,12.957,12.957,0,0,0-4.5,1.411,43.716,43.716,0,0,1,4.619-8.519,24.214,24.214,0,0,1,3.255-3.666c-.085.269-.177.535-.259.8C69.691,355.6,69.306,356.753,68.96,357.921Zm.359,8.392,0,0a84.97,84.97,0,0,1,1.794-9.068c.168-.534.334-1.067.512-1.6.019-.059.043-.115.063-.174A100.9,100.9,0,0,0,69.319,366.314ZM85.988,259.1a.743.743,0,0,0-.161.028c-.059-1.574-.11-3.146-.136-4.722a2.227,2.227,0,0,1,.072-.362c.015.23.033.468.051.694.115,1.382.17,2.764.192,4.148C86,258.961,85.995,259.033,85.988,259.1Zm1.362,24.057a.77.77,0,0,0-.179-.427c0-.9.014-1.793.023-2.69a.76.76,0,0,0,.156-.055q.025,1.973.048,3.949C87.38,283.68,87.37,283.419,87.35,283.161Zm21.277,119.962c.209-2.283.5-4.509.542-6.674a31.9,31.9,0,0,1,4.782,13.981c.267,2.755.245,5.465.617,8.139a33.121,33.121,0,0,0-2.391-2.916C108.794,411.94,108.179,408.011,108.627,403.123Zm-4.246-39.149a53.88,53.88,0,0,0-4.16-14.257,13.342,13.342,0,0,1,2.85,1.167,15.358,15.358,0,0,1,5.7,5.871c2.04,3.711,2.605,7.741,2.85,11.824A69.69,69.69,0,0,1,104.381,363.974Zm6.1,12.65a35.425,35.425,0,0,0-5.631-4.485c-.039-.478-.071-.956-.118-1.434a40.173,40.173,0,0,0-.1-4.211c1.82,1.08,3.929,1.845,5.71,2.881.476.277.926.57,1.36.874.072,1.657.119,3.317.213,4.962.064,1.1.141,2.232.231,3.376C111.627,377.921,111.08,377.266,110.485,376.623Z" transform="translate(2.306 -111.544)"/><path class="d" d="M129.39,221.9a12.757,12.757,0,0,1-3.244-1.441c-.994-.586-1.554-.152-2.642-.262a.338.338,0,0,0-.37.405c-.077-.011-.155-.024-.231-.04.011-.04.027-.083.037-.123.046-.046.1-.086.146-.133a5.793,5.793,0,0,0,1.336-2.571c.813-1.557,2.546-2.887,3.734-3.986.339-.313-.186-.82-.515-.5a26.474,26.474,0,0,0-2.956,3.127c.126-.921.185-1.866.315-2.792.057-.4-.565-.592-.649-.173q-.267,1.479-.647,2.936a7.048,7.048,0,0,1-.783,2.053,12.645,12.645,0,0,0-.524-1.362,9.977,9.977,0,0,1-.261-7.115c.134-.488-.629-.689-.781-.208a10.711,10.711,0,0,0-.537,5.133c.3,1.535,1.288,2.813,1.615,4.255a5.394,5.394,0,0,1-3.621,1.875q-2.4.882-4.792,1.8a43.449,43.449,0,0,1-6.133,2.036,20.772,20.772,0,0,0-5.052.012,5.854,5.854,0,0,1-.594-.218.242.242,0,0,0-.276.4.6.6,0,0,0-.42.73c.82,1.989,4.012,2.191,5.964,2.388,2.415.244,4.533-1.089,6.975-.989a10.261,10.261,0,0,1,2.5.407.458.458,0,0,0,.073.109c.476.492,2.366,4.9,1.412,5.2a.186.186,0,0,0,.1.358c1.243-.263.476-3.489-.316-5.173a7.84,7.84,0,0,1,3.5,3.229,14.017,14.017,0,0,1-.712,4.148,11.227,11.227,0,0,1-1.221,2.149,1.743,1.743,0,0,0-.361.783.24.24,0,0,0,.463.123c.181-.534.743-.844,1.083-1.28a8.013,8.013,0,0,0,.954-1.8,11.965,11.965,0,0,0,.664-2.026,10.711,10.711,0,0,1,.347,2.784c0,.67.991.641,1.058,0a11.071,11.071,0,0,0-.33-4.213c.35.415.686.844,1.039,1.253a15.964,15.964,0,0,0,1.279,1.227,6.955,6.955,0,0,0,.973.923.19.19,0,0,0,.22-.027l.216-.182c.14-.117-.045-.353-.2-.249-.218.144-2.076-2.491-2.2-2.678a8.794,8.794,0,0,0-1.679-2.005,7.868,7.868,0,0,0-3.772-4.457,8.717,8.717,0,0,0-4.372-1.281.566.566,0,0,0-.271-.23c.56-.212,1.1-.42,1.581-.608a27.386,27.386,0,0,0,5.522-2.434.332.332,0,0,0,.29.093,3.105,3.105,0,0,0,1.465-.331c.315-.035.6-.125.928-.177a3.7,3.7,0,0,1,1.931.532,11.482,11.482,0,0,0,2.708.79C129.474,222.094,129.493,221.924,129.39,221.9Z" transform="translate(-5.565 -105.85)"/><path class="d" d="M82.155,125.353a.429.429,0,1,0-.85-.111c-.764,5.5-2.581,11.485-1.484,17.021.04.2.347.113.317-.085-.477-3.235.208-5.976.875-9.11C81.555,130.53,81.757,127.912,82.155,125.353Z" transform="translate(-2.477 -93.996)"/></g></g></g></svg>